<svg id="visual" viewBox="0 0 900 600" width="900" height="600" xmlns="http://www.w3.org/2000/svg" xmlns:xlink="http://www.w3.org/1999/xlink" version="1.1"><path d="M0 453L21.5 456.2C43 459.3 86 465.7 128.8 467.8C171.7 470 214.3 468 257.2 464.5C300 461 343 456 385.8 449.8C428.7 443.7 471.3 436.3 514.2 427.8C557 419.3 600 409.7 642.8 406.2C685.7 402.7 728.3 405.3 771.2 415.8C814 426.3 857 444.7 878.5 453.8L900 463L900 601L878.5 601C857 601 814 601 771.2 601C728.3 601 685.7 601 642.8 601C600 601 557 601 514.2 601C471.3 601 428.7 601 385.8 601C343 601 300 601 257.2 601C214.3 601 171.7 601 128.8 601C86 601 43 601 21.5 601L0 601Z" fill="#471069" stroke-linecap="round" stroke-linejoin="miter"></path></svg>