<svg viewBox="0 0 200 200" xmlns="http://www.w3.org/2000/svg"><path d="M77.382 64.269a.375.375 0 0 0 .368-.369c.1-7.13-.073-13.828-.627-20.91a.359.359 0 0 0-.345-.332c-12.249-.409-21.476-.167-33.08.011l-.15.141c-.428 7.111-.6 13.946-.365 21.064a.307.307 0 0 0 .3.295c8.727.266 18.297.383 33.899.1zm-33.538-21.3c10.017 0 21.867-.048 32.586.395.5 6.759.665 13.545.575 20.163-10.838.211-22.25.265-33.22.035-.304-6.762-.236-13.811.059-20.594zM77.613 89.12a.374.374 0 0 0 .368-.369c.1-7.017-.066-13.742-.627-20.91a.361.361 0 0 0-.345-.332c-12.273-.41-21.622-.165-33.08.012l-.151.141c-.428 7.139-.6 13.973-.364 21.064a.306.306 0 0 0 .3.294c8.686.265 18.245.385 33.899.1zm-33.6-.708c-.3-6.77-.235-13.822.06-20.593 10.017 0 21.867-.048 32.586.395.5 6.709.665 13.463.574 20.164-10.878.21-22.25.264-33.218.034zM99.573 48.592c2.307 0 10.756-.047 10.787-.046a.15.15 0 0 0 .019-.3 174.161 174.161 0 0 0-23.305-.032c-1.716.495 5.226.386 12.499.378zM110.609 73.1a173.75 173.75 0 0 0-23.3-.032c-1.707.491 5.178.381 12.5.376 2.212 0 10.754-.047 10.787-.045a.15.15 0 0 0 .013-.299zM87.14 54.005c-1.724.494 5.267.382 12.5.377 2.239 0 10.756-.047 10.786-.046a.15.15 0 0 0 .019-.3 174.038 174.038 0 0 0-23.305-.031zM87.371 78.856c-1.852.532 5.907.38 12.5.378 2.291 0 10.758-.047 10.787-.046a.15.15 0 0 0 .019-.3 174.751 174.751 0 0 0-23.306-.032zM87.281 59.694c-2.352.679 18.656.114 23.286.331a.15.15 0 0 0 .019-.3 173.714 173.714 0 0 0-23.305-.031zM110.817 84.578a173.5 173.5 0 0 0-23.3-.033c-1.715.492 5.21.38 12.5.377 2.308 0 10.756-.047 10.787-.045a.15.15 0 0 0 .013-.299z" fill="#202040" class="fill-000000"></path><path d="M57.141 58.414c1.5-.149 6.725-3.835 7.763-4.877a.353.353 0 0 0 .046-.48c-.4-.61-5.778-3.42-8.244-4.111a.149.149 0 0 0-.191.139c0 .1-.432 6.96-.112 8.733.078.434.285.642.738.596zM56.937 73.8a.149.149 0 0 0-.191.139c0 .1-.437 6.932-.113 8.733.078.433.285.643.738.6 1.5-.149 6.723-3.834 7.764-4.878a.353.353 0 0 0 .045-.48c-.389-.599-5.73-3.414-8.243-4.114zM65.5 98.156c-2.72-1.79-11.723-1.487-14.823-.4A2.869 2.869 0 0 0 49.085 100c-.035.159-.624 3.707.6 4.39a6.712 6.712 0 0 0 3.8.1c.607-.151.753-.317.852-.7.1-.4.083-1.065.241-1.221 1.06-1.027 5.719-.642 6.521.175.189.183-.094 1.693.792 1.844 1.573.265 3.719.578 4.853-.556.842-.832.082-5.008-1.244-5.876zm.714 5.36c-.884.89-2.942.571-4.178.368-.375-.871.374-1.629-1.555-2.188-1.709-.5-5.159-.647-6.28.508-.289.3-.256.844-.311 1.3-.048.4-.059.418-.524.552-.906.264-3.418.568-3.812-.186-.539-1.028-.395-5.079 1.293-5.611 2.787-.886 11.8-1.11 14.242.517.995.657 1.547 4.324 1.127 4.74zM80.05 98.308c-2.59.1-2.541.045-2.562.222a21.979 21.979 0 0 0-.233 2.238c-.028.868.037 1.35.906 1.332.531-.01 1.717-.314 1.859-.169a13.467 13.467 0 0 0 1.937 2.012c.811.571 1.587.512 1.893-.588.454-1.632.023-6.424-.724-7.15-1.254-1.205-2.4 1.413-3.076 2.103zm3.141 4.588a1.292 1.292 0 0 1-.224.634c-.405.4-2.371-1.975-2.472-2.073-.49-.475-1.466-.029-2.267.07a.87.87 0 0 1-.4-.016 11.013 11.013 0 0 1-.053-2.808l2.306.087c.232.008.456-.248.605-.426.52-.619 1.487-2.143 1.945-1.667a15.221 15.221 0 0 1 .56 6.203zM87.245 98.43a.151.151 0 0 0-.247.175c.007.034-.032 1.751-.037 1.768a.15.15 0 0 0 .226.2 1.345 1.345 0 0 0 .058-2.143zM89.106 96.664a.151.151 0 0 0-.216.211c.628.871.5 4.687.136 5.229a.15.15 0 0 0 .22.2c1.073-.852 1.244-4.589-.14-5.64zM126.46 105.632c.232-.093-2.311-4.308-3.088-5a.37.37 0 0 0-.606.087 53.047 53.047 0 0 0-2.128 5.554c-.112.469.166.605.645.622.917.03 5.45-.43 5.177-1.263zM142.932 60.3a.377.377 0 0 0 .746-.114c-.03-.192-.079-.386-.094-.523a.377.377 0 0 0-.748.09c.02.178.072.383.096.547zM145.437 62.692c.363.7 1.124.274 1.823.015a.148.148 0 0 0-.055-.29c-1.949.06-.784.54-1.745-3.565a.15.15 0 0 0-.3.022 8.375 8.375 0 0 0-.018 2.855 4.754 4.754 0 0 0 .295.963zM147.533 59.733a.376.376 0 0 0 .751-.054 6.5 6.5 0 0 0-.145-.634.376.376 0 0 0-.738.148c.013.071.127.489.132.54zM148.13 64.4c-.009.006-1.442.579-1.5.587a.151.151 0 0 0-.092.288 1.2 1.2 0 0 0 1.849-.713.15.15 0 0 0-.257-.162zM30.555 121.287l.007-.016zM67.984 135.184zM30.682 138.191c.549-.066 10.961-.066 11.062-.065.929 0 .79-2.232.055-2.412.051-.252-9.944-.449-11.234-.18a.326.326 0 0 0-.277.261 8.446 8.446 0 0 0-.153 1.774c.035.355.193.662.547.622zM48.715 137.87a102.264 102.264 0 0 0 12.465.414.15.15 0 0 0 .016-.3 70.481 70.481 0 0 0-12.474-.418.152.152 0 0 0-.007.304zM64.281 132.317a91.457 91.457 0 0 0-14.369-.4.152.152 0 0 0-.005.3 143.3 143.3 0 0 0 14.358.4.15.15 0 0 0 .016-.3zM49.974 129.749a.152.152 0 0 0 0 .3c4.876.437 9.437.437 14.358.4a.15.15 0 0 0 .016-.3 91.413 91.413 0 0 0-14.374-.4zM121.581 25.592c.7 2.966 5.44 7.559 5.976 8.244-.088.826-.778 4.5-.493 5.676.326 1.35 6.745 2.1 7.522 1.015.231.172 1.07-5.487 1.283-5.706.415-.422 2.753-.643 3.384-.961 6.979-3.549 8.1-12.239 4.113-17.769-1.288-1.779-5.483-3.64-7.629-4.049-4.372-.829-9.541.133-12.045 3.951a12.365 12.365 0 0 0-2.111 9.599zm12.761 14.757c-.683.915-6.639-.069-6.829-.94a5 5 0 0 1-.01-1.274c1.822.944 5.521 1.564 7.173.839-.144.826-.265 1.426-.334 1.375zm.395-1.733c-.907.3-6.028-.534-7.2-.838.053-.514.131-1.077.212-1.609a10.44 10.44 0 0 0 7.257.832c-.093.544-.184 1.108-.269 1.615zm.325-1.954a31.244 31.244 0 0 1-7.263-.819c.1-.629.167-.991.29-1.738a12.5 12.5 0 0 0 7.313.847 24.788 24.788 0 0 0-.34 1.71zM129.068 25.8c.764 1.65 3.191.6 2.87-1.248a2.934 2.934 0 0 0-.786-1.488 3.709 3.709 0 0 1 1.816.211 2.839 2.839 0 0 0-.761 2.079 1.279 1.279 0 0 0 2.145.988 2.163 2.163 0 0 0-.082-2.9 3.257 3.257 0 0 1 1.926.275 2.238 2.238 0 0 0-1.119 2.086 1.411 1.411 0 0 0 1.969 1.049c1.113-.455 1.063-1.905.442-2.869a1.969 1.969 0 0 1 .965.207 2.036 2.036 0 0 1 .745 1.342c.065 1.521-1.175 2.532-2.262 3.612a12.853 12.853 0 0 0-2.148 1.926 25.227 25.227 0 0 0-1.136 3.425 74.1 74.1 0 0 1-3.453-.4 23.516 23.516 0 0 0-.392-3.645c-.392-1.373-2.009-2.492-2.533-4.442a2.292 2.292 0 0 1 1.494-2.92 2.6 2.6 0 0 1 .929-.147 2.47 2.47 0 0 0-.629 2.859zm1.357-2.489c1.293 1.05.953 2.627-.166 2.593-.759-.024-1.118-1.831.166-2.592zm3.14.439c.479.555.822 1.538.279 2.041-.339.311-.953.141-.886-.733a1.888 1.888 0 0 1 .607-1.307zm3.169.441a1.83 1.83 0 0 1 .374 1.7.583.583 0 0 1-.341.293.691.691 0 0 1-.989-.507c-.106-.569.45-1.217.956-1.485zm-12.427-7.8c2.313-3.513 7.179-4.4 11.29-3.618 1.964.371 6.014 2.153 7.174 3.744 3.77 5.149 2.787 13.436-3.747 16.9-.692.367-3.219.566-3.506 1.181-.46-.008-.987-.037-1.551-.081.4-1.466.891-3.106 1.718-3.807.59-.5 1.39-1.028 1.592-1.218a12.312 12.312 0 0 0 1.95-2.069 2.834 2.834 0 0 0 .168-3.147 1.724 1.724 0 0 0-.656-.669 2.542 2.542 0 0 0-1.758-.232 3.562 3.562 0 0 0-3.311-.54 3.871 3.871 0 0 0-3.257-.334 2.022 2.022 0 0 0-1.81-.039 3.109 3.109 0 0 0-1.784 1.551c-.708 1.621.346 3.411 1.443 4.79a5.617 5.617 0 0 1 1.149 1.758 26.415 26.415 0 0 1 .491 3.483 60.308 60.308 0 0 1-1.777-.286c-.027-.466-5.174-5.285-5.868-8.325a11.716 11.716 0 0 1 2.05-9.033zM121.65 11.131a7.124 7.124 0 0 0 1.36 1.187.15.15 0 0 0 .221-.2 8.78 8.78 0 0 0-.878-1.307 9.821 9.821 0 0 0-2.1-2.02.151.151 0 0 0-.222.205 10.493 10.493 0 0 0 1.619 2.135zM147.63 15.155c.3-.12.714-.282 1-.435a14.085 14.085 0 0 0 2.331-1.651c.136-.125.258-.248.392-.377a.151.151 0 0 0-.163-.255 8.017 8.017 0 0 0-1.992 1.045 8.544 8.544 0 0 0-1.732 1.421.15.15 0 0 0 .164.252zM150.261 26.036c.312.067.744.162 1.062.194a13.813 13.813 0 0 0 2.822-.084c.18-.029.349-.064.529-.1a.152.152 0 0 0 .006-.3 7.835 7.835 0 0 0-2.211-.234 8.378 8.378 0 0 0-2.2.225.149.149 0 0 0-.008.299zM113.819 21.317a10.111 10.111 0 0 0 2.5.875 6.839 6.839 0 0 0 1.769.228.15.15 0 0 0 .071-.291 8.309 8.309 0 0 0-1.437-.6 9.54 9.54 0 0 0-2.836-.51.151.151 0 0 0-.067.298zM135.9 9.35a7.923 7.923 0 0 0 .36-1.44 8.721 8.721 0 0 0 .05-2.748.151.151 0 0 0-.3-.024 9.117 9.117 0 0 0-.463 2.486 6.226 6.226 0 0 0 .057 1.7.15.15 0 0 0 .296.026zM156.122 60.575a.392.392 0 0 0 .383-.283.377.377 0 0 0-.61-.421.391.391 0 0 0 .227.704z" fill="#202040" class="fill-000000"></path><path d="M193.7 84.967c-2.36-3.129-9.486-4.509-17.034-5.045.33-2.991-2.32-4.331-2.727-5.928-.66-2.588-.272-3.327-2.072-5.554-.615-.761-1.79-.929-2.534-1.369-6.207-3.688-3.418-5.662-4.747-11.555-.441-1.969-.914-2.033-1.533-3.154-.46-.834-.421-2.383-.709-3.82-.291-1.454-2.15-2.818-3.407-3.607a4.349 4.349 0 0 0-2.26-7.5 6.529 6.529 0 0 0-3.963.631c-1.117.529-1.532 1.881-1.8 3.084a2.3 2.3 0 0 0 .144 1.194 11.158 11.158 0 0 0-2.976 1.163c-.806.4-2.22.191-3.159.32-2.947.408-5.436 3.95-5.767 6.805-.194 1.68.388 3.072.642 4.633.113.685-.365 2.2-.02 2.895a.509.509 0 0 0 .561.3 16.623 16.623 0 0 0-.707 4.361c.115 1.8.626 2.129-.335 4.223-1.233 2.685-2.668 3.825-1.912 6.632a13.941 13.941 0 0 0-3.685 2.561 55.354 55.354 0 0 0-9.748 12.607c-1.6.067-3.224.137-4.833.209-.119-19.63-.465-35.568-1.507-59.447a.374.374 0 0 0-.351-.357c-23.437-1.484-45.6-1.269-64.346-.925a16.3 16.3 0 0 0 3.031-3.349.706.706 0 0 0 .028-.6 17.29 17.29 0 0 1-.746-2.59 75.581 75.581 0 0 1-9.489 7.156 9.6 9.6 0 0 1-3.494 1.492 70.862 70.862 0 0 1-14.269.949 11.382 11.382 0 0 0 1.324 3.511c.7.72 4.4.783 7.947.664-.05 1.941-.352 11.271-.565 23.848a15.842 15.842 0 0 0-2.732.157.135.135 0 0 0-.1.091c-.111.341-.3 3-.321 3.38a11.922 11.922 0 0 0-2.651.6 23.035 23.035 0 0 0-1.784-2.395c-.422-.434-3.57 1.994-4.062 2.528-.1.112-.157.13 1.521 2.645a8.992 8.992 0 0 0-.541.663 21.4 21.4 0 0 0-2.522-1.157.332.332 0 0 0-.311.1 14.19 14.19 0 0 0-2.118 4.083c-.047.192-.055.243 2.6 1.641a9.064 9.064 0 0 0-.171.97 24.331 24.331 0 0 0-3.127.21.369.369 0 0 0-.26.288 14.223 14.223 0 0 0 .5 4.6c.075.213.171.266 3.616.185.068.179.123.31.19.471a27.163 27.163 0 0 0-3.041 1.9c-.606.5 2.354 4.429 2.823 4.287.378-.113 2.71-1.438 3.05-1.633A14.257 14.257 0 0 0 26 85.448a.569.569 0 0 0 .216.429 16.578 16.578 0 0 0 3.746 2.1.538.538 0 0 0 .485-.017A16.408 16.408 0 0 0 32 85.93l.306.083a13.266 13.266 0 0 0 .026 2.713.573.573 0 0 0 .4.276 16.888 16.888 0 0 0 3.74.132c.025 8.27.124 16.6.306 25.022l.325.33c24.266 1.085 47.952 1.061 71.939.445.983 2.592.727 2.031.772 2.105.374.63.559 1.942 1.364 2.353a10.2 10.2 0 0 0 2.211.179c-3.571 2.856-7.388 9.784-9.335 13.921-5.717-.612-10.023-1.1-11.218-1.211-5.107-.457-6.917 13.254-1.617 16.367.668.393 2.874.788 6.149 1.171a136.577 136.577 0 0 0-6.2 18.857c-.293 1.265-4.476 12.622-4.454 14.842a.782.782 0 0 0 .174.542 10.069 10.069 0 0 0 .924.635c-.74 3.047-.573 2.555-1.019 3.3-.84-.181-4.369-1.694-6.469-.553-1.19.649-1.2 3.213.09 3.64 2.008.672 10.114 3.916 11.322 2.2a28.381 28.381 0 0 0 2.049-5.763 1.88 1.88 0 0 0 1.586-.259c8.968-7.968 16.81-26.337 20.837-35.922 1.974.121 3.779.225 5.75.336 2.526 15.33 7.686 32.989 8.667 33.937a2.4 2.4 0 0 0 1.185.432 4.493 4.493 0 0 1-.423 2.132 7.982 7.982 0 0 1-1.758.714c-2.275.868-4.175 1.207-4.2 3.846a2.406 2.406 0 0 0 .943 1.883c.94.631 2.5.353 3.948.157a28.727 28.727 0 0 0 6.955-1.7c.742-.253 2.263-.611 2.495-1.686a21.053 21.053 0 0 0-.3-6.26 10.219 10.219 0 0 0 1.362-.447c.308-.153.445-.623.533-.982.915-3.728 1.109-20.109 1.132-31.061 7.171.273 17.6.576 23.452.575a52.833 52.833 0 0 0 7.449-.423c.736 6.777 2.856 24.762 3.684 29.775.788 4.739 5.433 3.036 4.992.089-.41-2.727-2.02-24.429-2.719-31.285 5.626-2.022 9.466-5.805 10.75-11.693 2.708-12.502 6.761-50.503 3.595-54.707zm-157.235-3.92a6.393 6.393 0 0 1-7.014-5.842c-.354-4.911 2.888-7.3 7.1-6.671q-.068 6.248-.086 12.513zm.094-13.1c-4.463-.639-8.077 1.924-7.641 7.3.391 4.364 4.162 6.186 7.547 6.027q-.009 3.628 0 7.27a15.854 15.854 0 0 1-3.613-.121 24.762 24.762 0 0 1 .05-2.611.293.293 0 0 0-.226-.3l-.717-.2c-.308-.1-.285.117-1.243 1.416a8.374 8.374 0 0 1-.546.7 15.394 15.394 0 0 1-3.57-1.996 6.838 6.838 0 0 1 .429-.829c1.064-1.886 1.154-1.477.453-2.148a.289.289 0 0 0-.345-.044c-.682.394-2.354 1.337-2.967 1.631a14.76 14.76 0 0 1-2.341-3.342 32.761 32.761 0 0 1 3.056-1.882.272.272 0 0 0 .116-.35c-.12-.266-.233-.537-.349-.845-.1-.265-.13-.148-2.388-.136-.555 0-1 0-1.225-.01a14.493 14.493 0 0 1-.468-4.094 29.238 29.238 0 0 1 3.13-.206.235.235 0 0 0 .229-.213c.11-1.219.366-1.407.1-1.547-.614-.316-2.072-1.083-2.506-1.357a14.161 14.161 0 0 1 1.918-3.748 10.626 10.626 0 0 1 .983.4c1.557.71 1.651.9 1.8.7a8.815 8.815 0 0 1 .7-.873c.159-.173-1.055-1.726-1.56-2.64a13.833 13.833 0 0 1 3.559-2.437 24.693 24.693 0 0 1 1.8 2.39c.141.208.856-.408 2.935-.6.2-.018.234-2.416.437-3.447a16.648 16.648 0 0 1 2.589-.115q-.078 4.13-.126 8.254zm139.793 15.206a10.287 10.287 0 0 1 .256-2.826 64.718 64.718 0 0 1 8.622 1.147 2.3 2.3 0 0 0-1.983 1.362c-2.632 6.291-3.682 30.684-5.717 39.784-1.07 4.793-2.13 12.868-6.309 15.379-.705.425-5.148.233-11.613-.234 12.638-7.308 11.487-22.781 9.889-26.415 2.772-4.394 5.064-13.24 4.22-22.026a7.358 7.358 0 0 0 2.635-6.171zm-7.842-6.813c7.013 8.456 5.4 27.551.038 35.116-1.311 1.851-8.188 2.416-15.355 3.574-.918.093-1.853.18-2.8.261-.19-.6-.659-1.925-1.7-4.964 7.207-4.2 9.611-2.509 9.644-3.483.341-9.718 1.663-25.882 10.173-30.504zm-30.28 108.309a37.806 37.806 0 0 1-3.511.581c-2.209-7.472-8.465-44.186-6.182-50.818 1.515-4.407 16.736-13.7 21.159-16.076a104.372 104.372 0 0 0 14.094-1.729c.3-.073.6-.128.675-.4a3.918 3.918 0 0 0 0-2.2c1.532-.386 1.18-.349 1.28-.349 1.185 12.394-15.085 12.8-26.593 20.029-6.164 3.88-.947 50.586-.922 50.962zm4-129.715c.351-1.075 1.247-1.713 1.515-2.937a4.043 4.043 0 0 0 3.342 3.264c.536.137 1.833-.094 2.6.049 1.27 1.28 1.47 2.23 3.712 2.685.192.248.274.93.581 1.39a.906.906 0 0 0 1.458.228c.393-.5.34-1.846.766-2.013 1.9-.772 2.356 1.687 1.669 2.908a4.258 4.258 0 0 1-1.826 1.587.373.373 0 0 0-.221.283c.016-.1-.806 7.1.538 9.118 1.611 2.415 5.68 1.52 7.955 2.055-8.032 6.389-11.366 12.029-16.06 12.669-2.734-2.1-4.287-9.812-4.556-13.818 3.843-.667 3.977-.225 4.1-.638a27.639 27.639 0 0 0 .547-3.126c.04-.385.128-.953-.229-1.038a6.779 6.779 0 0 1-4.624-3.2c-.669-1.434-.551-1.571-1.508-4.848a11.755 11.755 0 0 0-.548-2.272 10.115 10.115 0 0 0 .79-2.346zm-8.058 21.78a13.682 13.682 0 0 1 4.638-2.956c.17 1.234.266 7.992-.3 8.539a26.172 26.172 0 0 0-4.057 6.156c-2.779.086-6.15.212-9.677.357a54.973 54.973 0 0 1 9.397-12.096zM37.59 35.545c.406-.015 7.508-.337 7.775-.6.4-.4 4.046-3.393 6.961-6.07 20.768-.2 42.481-.3 64.552 1.1l.354 8.338c-19.513 1.612-60.81 1.481-79.718.283.014-.615.056-2.45.076-3.051zm-.146 78.277c-.621-24.7-.508-50.254.063-74.923 19.435 1.423 58.875 1.871 79.785.163.634 16.585.983 33.306 1.079 50.024-9.053.408-17.439.86-18.011 1.019a.332.332 0 0 0-.253.379c.071.547 6.156 17.093 8.649 23.707-23.856.615-47.64.647-71.312-.369zm72.62 2.895c-.639-1.88-8.391-23.142-9.263-26.044 3.079-.324 38.025-1.807 40.381-1.57 1.114 2.647 7.126 23.25 8.3 26.394-15.557 1.148-39.314 1.218-39.418 1.22zM91.592 148c-4.726-2.771-2.961-15.351 1.173-14.983 3.9.347 7.25.85 10.881 1.338-1.731 3.78-3.291 7.84-6 14.729-1.028-.117-5.192-.579-6.054-1.084zm.55 42.477a31.625 31.625 0 0 0-3.161-.685c.31-.74.539-1.236-.149-1.869a7.187 7.187 0 0 0-1.123-.687c.175-.679.324-1.516.473-2.306a19.84 19.84 0 0 0 4.983 2.438c-.301.947-.665 2.093-1.023 3.108zm2.752-3.751c-.224.2-.679.189-1.259.045 8.134-19.923 17.363-43.23 21.942-51.4a12.537 12.537 0 0 1 7.192-5.587c-2.185 4.439-2.468 10.523-1.682 14.662a9.3 9.3 0 0 0-2.7.431c-1.317.641-11.242 30.936-23.493 41.848zm21.615-36.13c1.084-2.582 1.856-4.418 2.255-5.072a9.29 9.29 0 0 1 2.273-.337c.209 1.837.478 3.76.792 5.726-1.878-.107-3.692-.213-5.32-.313zm14.636 34.479c-1.333-2.311-7.629-24.421-9.389-40.181-.067-.6-.9.418-.384-6.317.375-4.852 1.772-9.973 5.624-12.983 1.283-1.037 4.448-3.179 5.89-4.059a.15.15 0 0 0-.148-.26 68.634 68.634 0 0 0-6.161 3.776 12.939 12.939 0 0 0-3.624 4.373 12.9 12.9 0 0 0-7.853 5.676c-6.277 10.772-17.372 39.99-21.757 51.592a25.785 25.785 0 0 1-5.93-3.089c-.021-2.349 4.05-13.3 4.389-14.779 2.03-8.865 5.5-17.195 8.763-25.629 2.584-6.688 7.492-19 13.473-23.609 2.5.047 6.443.016 11.062-.094-5.985 1.329-10.255 3.554-13.687 9.424-6.532 11.314-20.639 49.485-22.269 55.662a.151.151 0 0 0 .292.08c1.063-3.756 16.478-44.707 22.573-55.4 3.541-6.292 8.189-8.395 15-9.814 6.792-.186 14.747-.53 21.706-1.031-8.038 4.214-19.5 11.779-20.881 15.761-2.338 6.77 3.538 41.251 6.578 51.093-1.554.155-2.887.151-3.267-.193zm5.256 3.837c-2.026.436-.926-.034-1.817-.883-.414-.393-1.766-.248-2.591-.146a5.466 5.466 0 0 0 .186-1.809 26 26 0 0 0 6.662-.8c.142.949.251 1.966.3 2.943-.409.115-1.168.357-2.741.694zm5.379-45.862c-.034-2.574.327 36.782-1.325 40.975a11.627 11.627 0 0 1-1.926.559c-.389-5.64-4.012-47.084 1.025-50.268 11.1-7.042 27.975-7.89 26.493-20.688-.019-.177 2.361-.662 3.125-1.788.962 2.664 1.621 10.824-2.2 17.673-2.6 4.655-7.264 8.815-15.309 10.551-1.28.275-8.37 2.292-9.636 2.653a.344.344 0 0 0-.247.332zm39.544 39.7c.3 1.987-2.886 3.432-3.515-.321-.8-4.74-3.014-22.28-4.011-29.713a29.89 29.89 0 0 0 5.2-1.238c.473 6.552 1.648 26.705 2.326 31.276zm8.091-43.237a14.219 14.219 0 0 1-6.441 9.3c-5.827 3.707-13.7 3.655-17.033 3.653-5.732 0-14.225-.219-23.45-.577.006-3.983-.011-7.156-.02-8.586 12.159-3.51 12.436-3.144 15.885-4.868 7.263.465 12.285.608 13.171.068 4.4-2.669 5.412-10.778 6.505-15.775 1.984-9.1 2.894-33.558 5.495-39.779.454-1.084 1.692-1.345 3.155-1.137 3.067.8 5.451 1.913 6.6 3.459 1.84 2.467.625 18.546.387 21.631-.913 11.898-2.695 25.537-4.254 32.615z" fill="#202040" class="fill-000000"></path><path d="M72.782 144.014c.622-3.544-5.688-5.288-9.216-6.087-.045-1.493.942-2.153 1.619-2.843 1.1.04 2.508.092 2.8.1a.377.377 0 0 0 .3-.607c-1.708-2.216-1.385-5.836.7-7.448a.375.375 0 0 0-.217-.67c-1.9-.072-4.15-.15-6.619-.232a10.17 10.17 0 0 0 .132-3.5.481.481 0 0 0-.283-.374c-2.15-1.118-31.186-2.131-31.694-1.236a11.834 11.834 0 0 0-.175 4.175c-5.019-.129-8.381-.2-8.413-.176-.667.519-1.321 2.277-1.476 4.091-.142 1.652.137 3.339 1.117 4.2.017.015 1.745.089 4.526.2a4.808 4.808 0 0 0-.984 2.543c-10.473.82-18.658 2.676-19.229 5.454-.8 1.105-.445 4.533-.459 5.4-.07 4.429 8.221 7.572 19.013 9.223-2.68 9.09-6.861 25.773-7.1 28.192a.538.538 0 0 0 .112.474c.471.471 2.951 1.468 3.464.595 1.98-3.373 6.827-19.126 9.59-28.514 1.5.144 3.027.262 4.565.353-.209 9.054-.645 25.259.113 30.043.3 1.906 4.919 1.924 5.22.026.8-5.15.829-20.325.909-29.845 1.966.024 3.922 0 5.841-.06 2.817 9.536 7.446 24.463 9.357 27.722.237.4.8.389 1.263.313.565-.093 2.193-.6 2.309-1.107.173-.794-3.936-17.481-6.762-27.305 11.2-1.021 19.869-3.808 19.606-8.589a22.05 22.05 0 0 0 .071-4.511zm-9-3.374c-.057 0-8.32-.329-17.731-.632a7.239 7.239 0 0 1 .295-5.5c5.754.231 11.859.463 17.623.658-1.58 1.651-1.438 3.549-.184 5.474zm1.651 1.3a4.167 4.167 0 0 1-.354 2.55c-.878.068-10.441.064-21.215.014-.158-1.327-.153-2.653-.183-3.764 2.38.087 19.409.691 21.755 1.202zm-19.181-8.24-3.806-.129c-1.087-2.549-1.5-4.94.326-7.266 1.377.05 2.789.1 4.192.142a12.364 12.364 0 0 0-.712 7.253zm21.531-6.514a6.421 6.421 0 0 0-.519 7.216c-22.091-.859-20.368-.44-20.536-.946a11.838 11.838 0 0 1 .569-7c4.051.126 18.011.633 20.486.728zm-6.225-4.2a11.459 11.459 0 0 1-.121 2.964c-2.209.122-8.767-.153-12.219-.261-.113-1.3-.138-2.783-.173-3.864 6.023.351 11.443.793 12.513 1.157zM48.727 121.8c-.021 1.117-.081 2.527-.02 3.988-.876-.019-17.29-.412-18.176-.577a11.986 11.986 0 0 1 .024-3.927c-.066.116-.468-.565 18.172.516zm-27.141 11.219c-1.722-1.576-.932-6.557.279-7.632 24.158 1.065 11.58.534 17.19.77-1.655 2.005-1.674 4.722-.781 7.273-6.962-.23-11.274-.342-16.688-.411zm4.7.623c4.721.222 11.882.536 19.723.852a7.432 7.432 0 0 0-.446 5.5c-6.72-.215-13.96-.415-19.178-.474-1.714-1.529-1.315-4.82-.095-5.878zm17.082 7.089c-.007 1.044-.06 2.422.051 3.772-14.229-.067-30.379-.212-31.38-.372-.46-.477-.218-3.613.083-3.92-.103.089-1.305-.632 31.25.52zm-23.3 44.338a4.344 4.344 0 0 1-2.2-.619c-.01.1-.1-.573 3.436-14.958.435-1.768 2.028-8.3 3.359-13.2 1.672.248 3.4.46 5.166.636-2.95 9.293-8.243 25.521-9.757 28.141zm19.372 2.208c-.164 1.049-3.573 1.008-3.74-.027-.686-4.255-.412-24.117-.4-29.9 1.769.1 3.552.162 5.329.191-.299 10.198-.481 25.287-1.185 29.736zm19.677-3.1a4.336 4.336 0 0 1-2.2.621c-1.8-3.121-8.131-23.034-9.5-27.322 1.776-.067 3.518-.173 5.2-.318 2.529 9.407 6.338 25.423 6.504 27.015zM5.986 141.9c.025-2.726 8.249-4.436 18.882-5.12a4.2 4.2 0 0 0 1.09 2.923c-7.827-.072-13.752 0-14.045.3-.42.423-.764 3.873-.08 4.439.657.515 52.875 1.157 53.648.7.887-.414.73-3.029.739-2.9-.064-.912-.059-.989-1.316-1.162a16.437 16.437 0 0 1-1.187-2.277c4.932 1.113 8.129 2.62 8.244 4.522.632 10.6-66.077 9.475-65.975-1.425zM20.818 30.5c.377.2-.213-.507.856 3.629a24.828 24.828 0 0 0 1.114 3.519C20.4 38.9 22.122 43.6 24.864 41.58c2.032-1.13 1.669-5.574-1.757-4.085a28.13 28.13 0 0 0-1.744-6.839 50.518 50.518 0 0 0 6.521.368 97.973 97.973 0 0 0 14.893-1.486c2.082-.49 10.429-6.634 11.971-7.838a11.738 11.738 0 0 0 2.582-2.407c.159-.367-.079-.648-.424-.832-2.44-1.306-17.753-2.916-20.507-3.192-.994-.308-15.09 12.676-15.818 14.56a.488.488 0 0 0 .237.671zm2.32 7.812c2.838-1.523 2.784 2.107 1.563 3.016-2.286 1.272-2.996-2.28-1.563-3.017zm17.073-17.039c1.2.9-.781 4.364-3.116 2.46-2.556-2.195 1.181-4.444 3.116-2.46z" fill="#202040" class="fill-000000"></path></svg>