<svg viewBox="0 0 200 200" xmlns="http://www.w3.org/2000/svg"><path d="M14.517 39.2a.9.9 0 0 0 1-.374c1.079-1.177 2.332-4.672 2.8-6.282.235-.808.406-1.489.509-1.9a.139.139 0 0 0-.266-.084c-.294.741-3.058 7.9-3.789 8.052a4.849 4.849 0 0 1-1.267-.385c-1.331-.57-1.337-.871-1.493-.683-.293.363 1.898 1.504 2.506 1.656zM18.841 55.87c-.3.74-3.059 7.9-3.789 8.051a4.789 4.789 0 0 1-1.267-.385c-1.328-.567-1.337-.871-1.494-.683-.291.354 1.9 1.495 2.507 1.651a.9.9 0 0 0 1-.374c1.078-1.175 2.331-4.67 2.8-6.282.236-.807.407-1.488.509-1.894a.139.139 0 0 0-.266-.084z" fill-rule="evenodd" fill="#202030" class="fill-000000"></path><path d="M5.766 45.327c1.165.8 18.875.2 20.278-.048a.441.441 0 0 0 .362-.212c.991-2.012.3-16.757-.613-19.108 1.065-1.072-19.019-2.2-20.382.538-.695 1.406-.419 16.638.179 18.6a.424.424 0 0 0 .176.23zm.216-18.55c.145-.3.868-.543 1.185-.637 4.563-1.367 18.043-.909 18.364-.083-.108.055.61.321.8 9.408.032 1.541.1 7.752-.434 9.2-1.636.241-17.422.641-19.671.1-.544-2.276-.793-16.865-.244-17.988zM26.688 70.367c.99-2.013.274-16.747-.613-19.108-.457-1.213-14.384-1.681-18.8-.414a2.562 2.562 0 0 0-1.581.952C5 53.2 5.272 68.431 5.871 70.4a.429.429 0 0 0 .176.231c1.173.808 18.878.2 20.278-.048a.443.443 0 0 0 .363-.216zm-20.183-.305c-.542-2.273-.791-16.859-.242-17.985.791-1.631 14.233-1.86 18.535-1.055.179.034.962.193 1.016.335.873 2.307 1.153 16.464.362 18.605-1.506.223-17.349.659-19.671.1zM39.337 31.183c9.464.37 20.041.852 40.725.858a.139.139 0 0 0 0-.278c-13.153-.536-20.64-.678-40.722-.862a.141.141 0 0 0-.003.282zM64.779 54.5c.005.028.005.03 0 0zM70.623 52.8a.351.351 0 0 0-.7-.059c-.017.2.008.6.008.761a.351.351 0 0 0 .7 0c.003-.163-.02-.559-.008-.702zM74.923 55.589l.008-.026c-.008.01-.02.025-.008.026z" fill-rule="evenodd" fill="#202030" class="fill-000000"></path><path d="M74.389 51.931c.014.069.108 1 .128 1.145.007.046.408 2.441.414 2.487a.049.049 0 0 1-.008.026c-.135.349-.964.267-.92.542.028.179 1.108.325 1.5-.313.261-.482-.342-3.086-.85-3.984a.141.141 0 0 0-.264.097zM76.993 51.706a.351.351 0 0 0-.694.109c.083.533.033.978.438.978a.351.351 0 0 0 .347-.408c-.032-.198-.047-.391-.091-.679zM75.284 59.029a3.2 3.2 0 0 1-1.128-.46c-.564-.358-.3-.149-.754-.417-.285-.341-.426.5.5 1.086 1.253.776 1.948-.391 1.382-.209zM151.463 37.34a3.021 3.021 0 0 0-2 .263.167.167 0 0 0 .073.325 4.739 4.739 0 0 1 1.676.182c.414.155.669.51.31.881a3.019 3.019 0 0 1-1.4.717.168.168 0 0 0 .009.336 2.654 2.654 0 0 0 1.677-.287 1.287 1.287 0 0 0-.345-2.417zM146.885 31.507c0-.156 0-.368.013-.568a.351.351 0 0 0-.7-.049 9.221 9.221 0 0 0-.016.617.352.352 0 0 0 .703 0zM154.033 30.927c.008-.1-.044.439-.045.648a.352.352 0 0 0 .7 0c0-.176.022-.377.041-.594a.351.351 0 0 0-.696-.054zM146.657 27.631c.227.012.36.008.718.049 2.361.293.659-.639-.208-.721-.973-.093-2.516.58-.51.672zM153.156 27.562c.052 0-.233-.026 3.177.145a.139.139 0 0 0 .077-.268 3.362 3.362 0 0 0-3.34-.145.141.141 0 0 0 .086.268zM157.154 91.462a1.814 1.814 0 0 0-1.8-2.017A2.045 2.045 0 0 0 153.121 91c-.539 2.626 3.897 3.013 4.033.462zm-1.792-1.737c1.427.064 1.854 2.925-.426 2.751-1.708-.085-1.651-2.523.426-2.751zM132.046 84.281v.016a.146.146 0 0 1 .01.035c.038.002.02-.024-.01-.051z" fill-rule="evenodd" fill="#202030" class="fill-000000"></path><path d="M194.926 38.066c-.079-.252-.318-.293-.672-.351-3.769-.6-22.948-.515-33.933-.4q0-.49-.007-1.025c.649.269 1.249-.359 1.68-.66a4.959 4.959 0 0 0 2.087-3.779 59.526 59.526 0 0 0-.317-6.873c-.713-5.168-2.507-5.719-3.673-6.883a7.773 7.773 0 0 0-5.634-2.248c-3.451-.059-8.665 1.749-10.915 1.491-1.749-.2-2.98-1.926-4.757-1.02-.748.38-.776 1.553-.494 2.521-1.527.081-1.97 1.22-.914 2.3a1.462 1.462 0 0 0-.036 2 3.721 3.721 0 0 0 2.817 1.154 5.925 5.925 0 0 0 3.1 1.514 9.666 9.666 0 0 0-.228 2.739c-.3.125-.378.366-.451.763a17.2 17.2 0 0 0-.067 3.944c.082.637.129.92 1.47 1.085a15.605 15.605 0 0 0 .724 3.287c-19.3.58-18.692 1.5-18.592 1.423.088.284-.057-2.9-3.321 19.463-.153-.331-.5-.792-.664-1.09-.074-.129-3.812-7.762-6.422-10.639-.739-.815-1.643-1.253-2.371-.423-.8.907 1.478 3.815 2.187 5.616a1.369 1.369 0 0 0-1.4.526 1.039 1.039 0 0 0-.09 1.046 1.36 1.36 0 0 0-1.374.451 1.033 1.033 0 0 0-.037 1.193 1.574 1.574 0 0 0-1.411.545c-.6.655.2 1.715 1.233 2.351a7.73 7.73 0 0 0 3.617 2.723c.215.5.932 2.176 1.254 3.028a6.049 6.049 0 0 0-.875 1.207c-.275.724 2.731 5.828 4.249 8.318-.254 1.836-3.063 21.7-2.113 23.61.106.214.415.223.742.252 4.112.363 26.38.27 30.865.233-.343 1.284-.718 3.427-.845 4.281-3.082.124-5.776.3-7.366.482-.875.1-.563 1.88-.386 2.744-12.323.063-25.99.216-39.721.4 2.361-2.284 4.028-6.314 4.931-9.359a438.404 438.404 0 0 0 3.949-2.916.345.345 0 0 0 .14-.278c0 .382.011-2.843-.032-6.676-.1.05 1.169-.573.644-3.623a6.062 6.062 0 0 0-.569-1.834.526.526 0 0 0-.181-.148 47.39 47.39 0 0 0-.352-5.489c-.2-.985-.7-.613-1.62-.064a12.868 12.868 0 0 0-2.313-.847c-.214-.057.347-.368-7.09 4.544-.34-.067-2.463-.474-4.919-.918a31.343 31.343 0 0 0-7.909-8.954c.82-4.262.463-14.521.033-16.892-.081-.448-2.987-.81-7.363-1.087a13.211 13.211 0 0 0-.633-3.02c1.87-.336 2.629-1.318 2.568-2.494 2.057-.062 3.539-.128 4.2-.2.183-.018.4-.027.485-.183 1.345-2.547.982-15.551.466-18.321 3.01-1.506-43-2.312-49.591-1.288-.57.089-.819.161-1.078.594-1.476 2.466-1.643 17.16-.117 19.184a.659.659 0 0 0 .4.2c1.735.345 13.533.408 25.21.327a6.271 6.271 0 0 0 .283 1.314 15.479 15.479 0 0 0-.634 3.288c-10.65-.145-21.133-.014-23.779.4-.572.089-.821.164-1.078.594-1.485 2.464-1.641 17.161-.116 19.181a.661.661 0 0 0 .4.2c1.188.234 7.06.338 14.38.355-3.895 5.469-6.595 14.663-4.061 23.31.1.329.514.37.914.351a182.162 182.162 0 0 0-.92 11.605c-3.321.05-6.489.1-9.473.138-.022-.285-.091-.831-.212-1.951a.346.346 0 0 0-.341-.309c.3 0-2.966-.047-6.835.022a21.593 21.593 0 0 0 .03-5.456 9.442 9.442 0 0 0 3.9-.976.139.139 0 0 0-.151-.234C30.925 99 15.8 99.75 15.726 86.477a11.557 11.557 0 0 1 .969-4.435 10.426 10.426 0 0 1 6.255-5.86c.166.64.364 1.29.59 1.931a9.518 9.518 0 0 0-5.8 9.513c.545 6.271 4.609 9.028 10.862 8.632a8.946 8.946 0 0 0 7.071-3.486 12.215 12.215 0 0 0 1.692-7.05C36.852 79.1 30 75.886 24.209 77.859a25.89 25.89 0 0 0-.645-1.881 16.133 16.133 0 0 1 4.293-.659.142.142 0 0 0 0-.283 16.971 16.971 0 0 0-4.451.535c-.317-.784-.558-1.273-.58-1.323a.141.141 0 0 0-.271.08c.075.455.171.927.286 1.408-11.864 3.76-10.72 24.039 6.5 22.947a13.726 13.726 0 0 0-.224 2.678 11.9 11.9 0 0 0 .214 2.76c-1.4.027-2.864.07-4.261.136-2.578.124-2.977.195-2.946.455a7.815 7.815 0 0 0-.289 1.812c-2.022.015-3.82.022-5.368.02-4.043 0-3.253 5.965-.974 6.022 3.411.08 7.725.133 12.737.164-1.579 7.865-10.777 57.913-12.414 70.133-.19 1.433 3.289 1.8 3.59.433 2.378-10.791 12.315-64.2 12.414-70.548 4.415.018 9.277.021 14.467.011a239.34 239.34 0 0 0-.046 4.631.33.33 0 0 0 .344.366v.012l1.789.025a21.809 21.809 0 0 0 5.257 10.386c-6.479.308-10.647.672-11.082 1.075-.687.643-.658 4.442-.105 5.327.243.388-.419.358 5.378.161.112 5.5-1.908 38.514-1.484 38.938a.737.737 0 0 0 .479.146c.675.051 2.4.028 2.4.028a.35.35 0 0 0 .344-.32c-.008.1 2.868-35.3 3.077-38.944 2.083-.06 4.6-.127 7.641-.2 7.047 5.415 14.887 8.744 16.683 8.951-2.391 3.993-13.076 19.52-13.076 20.352a3.269 3.269 0 0 0 .423 1.2 6.794 6.794 0 0 0-2.137 1.78c-.5.728.017.1-.589.156a13.92 13.92 0 0 0-1.6.358.26.26 0 0 0-.136.181c-.266 1.029 3.514 9.582 4.982 11.605.188.258.456.6.772.581 2.644-.117 1.086-7.064-1.021-9.088.565-.523 1.7-1.748 2.061-2.179.5.56 1.452 1.573 2.05 1.117 6.681-5.115 22.791-17.916 25.05-26.167.131-7.27-4.288-15.232-9.74-19.129a.139.139 0 0 1 .158-.229c6.177 4.089 10.494 11.92 9.869 19.607a52.049 52.049 0 0 0 5.473 8.566c.413 2.107 2.335 20.255 3.123 24 .094.451.88.46 1.386.481a6.783 6.783 0 0 0 .379 2.673c.025.056-.7 1.906-.723 2.125a.259.259 0 0 0 .081.211c.709.747 9.845 2.115 12.48 1.934.32-.021.747-.068.9-.345 1.3-2.3-5.412-4.67-8.245-3.956a36.49 36.49 0 0 0-.73-2.829c.742-.058.842.574 3.629-16.682 1.792-11.18 1.658-19.477-.5-25.984 16.2-.178 27.233-.328 33.71-.623.146 3.743 1.64 22.373 3 38.641a.348.348 0 0 0 .343.32 23.1 23.1 0 0 0 2.722-.077.374.374 0 0 0 .268-.359c.143-2.29-1.735-34.147-1.586-38.848 1.449-.157 2.228-.344 2.374-.572a4.168 4.168 0 0 0 .307-3.235c-.189-.6-.218-.605-.627-.715-3.2-.854-22.356-1.173-43.759-1.105-3.211-4.654-7.992-8.253-14.41-11.524a5.026 5.026 0 0 0 .992-.635c.161-.139.129-.334.1-.568a45.465 45.465 0 0 0-.26-1.944c30.643-.308 61.33-.776 77.139-1.126.1 5.733 9.532 57.48 12.413 70.561.3 1.367 3.782 1.006 3.59-.434-1.606-12-10.831-62.365-12.427-70.21 4.709-.116 7.392-.215 7.38-.283 3.251-.1 3.663-5.351-.523-5.562-3.627-.181-8.407-.3-14.054-.371.025-1.106.115-2.669-.569-2.83a34.952 34.952 0 0 0-5.8-.546 40.366 40.366 0 0 0-.769-4.322c5.88-.107 22.537-.487 28.337-1.448.6-.1 1.959-.318 2.281-.8 1.853-2.74 3.967-55.405 3.473-56.999zm-51.666-4.622a17.746 17.746 0 0 1-.068-3.7c.12.545.116 1.232.683 1.369a20.378 20.378 0 0 0 .033 2.492 2.774 2.774 0 0 1-.648-.161zM20.027 81.768c1.563.68.685 1.934 1.067 3.219a1.377 1.377 0 0 0 .53.753c1.4 1 2.628-.569 3.356-.359.926.271 2.267 4.689-.462 6.285-3.261 1.913-3.485-1.5-5.97-2.739a9.275 9.275 0 0 1 1.479-7.159zm9.629 14.071c-.564-.649-.135-1.379.591-2.037a8.707 8.707 0 0 1 3.463-1.847c.451-.076.913.306 1.232.638a9.469 9.469 0 0 1-5.286 3.246zm6.764-12.013a9.307 9.307 0 0 1 .257 1.843c-.7 1.286-1.612 1.878-2.806 1.062-1.083-.736.688-3.193-1.086-4.342-.886-.575-2.259-.566-2.675-1.367a1.63 1.63 0 0 1 .858-2.481 8.894 8.894 0 0 1 5.452 5.285zm-12.636-5.058c.236.61.5 1.2.781 1.764a.139.139 0 0 0 .262-.094c-.078-.357-.191-1.035-.426-1.906a9.437 9.437 0 0 1 6.144-.138 1.993 1.993 0 0 0-.891 2.851c.73 1.6 3.426.832 3.276 3.066-.07 1.05-.416 2.336.546 3a2.225 2.225 0 0 0 3.275-.51 9.775 9.775 0 0 1-1.333 5.283 2.122 2.122 0 0 0-1.824-.809c-2.149.387-5.6 2.986-4.274 4.625a8.37 8.37 0 0 1-.733.082c-5.15.325-8.745-1.7-9.866-6.186 1.795 1.372 2.647 4.525 6.151 2.475 3.15-1.854 1.853-7.068.279-7.5-1.157-.314-2.063 1.31-3.235.542-1.081-.706.329-2.975-1.707-3.792a8.658 8.658 0 0 1 3.575-2.753zm40.492 91.448a23.09 23.09 0 0 1-2.186-2.961 18.206 18.206 0 0 0 2.486-1.856 18.8 18.8 0 0 0 1.723 2.493 5.919 5.919 0 0 0-2.023 2.324zm86.358 1.086c-.5.032-1.467.029-1.968.024-.764-9.2-2.925-34.007-3.405-38.277 1.73-.082 3.122-.174 4.19-.28-.316 5.476 1.149 35.491 1.183 38.531zm1.563-42.274a4.184 4.184 0 0 1-.337 2.972c-.022.034 0 .3-3.03.5-4.061.265-26.256.54-37.739.609a25.654 25.654 0 0 0-2.682-5.447c1.449-.085 38.836-.269 43.211.827a.633.633 0 0 1 .58.539zm-44.587 47.383a5.992 5.992 0 0 0 .9 2.89 22.65 22.65 0 0 1-3.672.281 18.545 18.545 0 0 0-.241-3.032c1.029.004 2.26-.069 3.013-.139zM162.627 46.2c-1.112.763-5.423 3.7-6.534 4.314-.709-.435-.417-.571-2.479-2.366 7.05-2.836 6.558-2.679 6.734-2.632s.727.184 2.279.684zm-10.837 5.475a3.037 3.037 0 0 1-.093-.9c1.271-1.263 1.637-2.122 1.852-2.212a16.951 16.951 0 0 1 1.384 1.707c-.139.3-.293.964-.539 1.477-.053-.014-2.572-.076-2.604-.072zm3.9 24.07c-2.331 3.806-1.224 2.632-3.779 6.366a34.888 34.888 0 0 1-3.185-6.363c1.156-7.527 2.332-15.705 3.4-23.25a13.04 13.04 0 0 0 1.893.027c.21 3.633 1.26 20.664 1.67 23.22zm-7.13-27.825c.012-.012.96-.759 1.358-1.062.219-.166.1-.184.569.089.607.355 1.578.986 2.333 1.349a17.3 17.3 0 0 1-1.635 2.033c-.077-.08-2.705-2.329-2.625-2.409zm10.278-15.546c.108.3.251.671.524.8.832.383.941-1.264 1.421-2.265.236-.487 1.356-.945 1.526.352.192 1.486-.728 2.142-1.977 2.975a1.481 1.481 0 0 0-.586 1.078c-.079 1.326-.023 8.065-.01 9.4l-6.409 3.054c-.848-.361-1.749-.955-2.446-1.3l-.326-3.315a5.1 5.1 0 0 0 1.644.108 5.458 5.458 0 0 0 2.714-.924.139.139 0 0 0-.112-.255c-.5.138-1.238.264-1.34.283-5.171.937-8-2.881-8.651-7.962a11.574 11.574 0 0 0 3.877-.345c-.334 1.425-.282 2.115 1.868 2.014a.14.14 0 0 0 .147-.132c.014-.252-.438-.091-1.22-.438-.1-.047-.307-.153-.3-.268a29.546 29.546 0 0 1 1.147-4.214 5.285 5.285 0 0 0 1.21-.089 16.512 16.512 0 0 0 .077 2.541c.059.431.126.691.451.857 1 .511 5.338.45 6.367-.058.692-.343.28-2.251.404-1.897zm-9.763-1.44a5.81 5.81 0 0 0 .674.079c-.942 2.023-.509 2.223-.674-.079zm9.079 2.783a16.54 16.54 0 0 1-5.757-.066c.063.074.018.054 0 0a15.178 15.178 0 0 1 .063-4.428c2.891-.417 4.808-.485 5.46-.126.133.481.261.972.384 1.434a22.566 22.566 0 0 1-.15 3.186zm-12.661-7.789c.752-.064 1.519-.182 2.156-.268 1.195-.16 2.449-.907 3.729-1.122.99-.165 1.364.014 3.657.764a11.464 11.464 0 0 1 1.836.953 9.126 9.126 0 0 1 .936 2.44 12.75 12.75 0 0 0-5.618-.091c-.333.125-.424.37-.507.8a9.1 9.1 0 0 0-.123 1.075 3.553 3.553 0 0 0-1.044-.124c.063-.225.113-.405.14-.494a.141.141 0 0 0-.261-.108c-.558 1.028-.035.37-1.349.828a4.042 4.042 0 0 0-.4-1.617c-.306-.563-2.128-.729-3.647-.68a10.093 10.093 0 0 1 .495-2.356zm2.988 7.569a15.024 15.024 0 0 1-3.749.192 19.5 19.5 0 0 1 .181-4.836c1.44-.15 3.222-.146 3.485.255.409.751.179 3.535.083 4.392zM126.3 39.259c.981-.611 8.666-1.011 18.549-1.238a8.642 8.642 0 0 0 4.867 5.107l.307 3.075a.351.351 0 0 0-.236.1 13.177 13.177 0 0 0-1.486 1.512c-6.267 2.75-12.008 10.431-15.567 16.341 0 0-8.59-5.806-9.5-5.769 1.434-9.926 2.755-18.135 3.066-19.128zM114.654 52.95c1.074-1.3 3.546 2.276 3.408 2.728-.671 1.442-3.799-2.256-3.408-2.728zm-1.489 1.525c.882-.966 2.694 1.266 2.942 2.075.3 1-1.895.237-2.82-1.587-.051-.099-.187-.415-.122-.488zm-1.32 2.138c-.775-1.238 2.2-.828 2.9 1.094.323.919-1.951.407-2.9-1.094zm4.591 3.937a.224.224 0 0 0-.124-.123 10.325 10.325 0 0 1-2.781-1.869c.668.159 1.267.036 1.5-.58a.858.858 0 0 0-.067-.675c.637.229 1.2.156 1.43-.462a1.125 1.125 0 0 0-.077-.8c.889.507 1.746.592 2.007-.265.245-.528-.736-2.495-1.952-3.39-.324-1.419-2.834-5.226-2.515-5.571 1.208-1.383 6.963 9.179 7.973 10.78a12.066 12.066 0 0 1 .724 1.094 42.277 42.277 0 0 0-5.012 4.877 59.968 59.968 0 0 0-1.106-3.016zm.82 4.709c1.215-2.074 6.052-6.082 5.951-6.124.543.3 2.347 1.183 4.89 2.632 4.874 2.776 4.878 3.174 5.069 2.893.07-.1 6.647-12.472 15.369-16.269a22.357 22.357 0 0 0 2.511 2.657c0 .336.076 1.207.382 1.348-1.147 8.013-3.222 23.325-3.158 23.473a35.127 35.127 0 0 0 3.53 6.571.141.141 0 0 0 .227-.006c2.858-3.948 1.565-2.591 4.109-6.517.063-.1.1 1.8-1.431-23.525.37-.16.657-1.334.75-1.73.25.233.526.505.788.383a74.725 74.725 0 0 0 7.071-4.47c6.3 2.011 13.331 7.46 18.064 16.264a53.115 53.115 0 0 1 5.975 21.77c-4.39-.159-9.223-.274-14.228-.349a84.3 84.3 0 0 1-5.931-19.536c-.433-2.351-.347-2.413-.544-2.387a.139.139 0 0 0-.122.154c1.147 11.217 5.008 19.935 6.253 21.763-14.38-.212-30.118-.1-40.778.208a.139.139 0 0 0 .05-.13c-.012 0-.014-.013-.01-.035a.128.128 0 0 0-.03-.043 93.113 93.113 0 0 1 7.761-22.5.139.139 0 0 0-.246-.129c-5.845 10.778-8.119 22.356-7.692 22.846q-.9.027-1.757.056c-5.179-5.004-11.959-16.537-12.823-19.268zM121.079 74a54.527 54.527 0 0 0 8.291 10.543 84.047 84.047 0 0 0-9.641.659c.363-3.349.831-7.192 1.35-11.202zm-20.146 31.38q-3.4.047-6.792.1-.471-.215-.925-.466a432.72 432.72 0 0 0-.742-4.009c3.379.243 6.413.293 7.112-.057 1.072-.534 4.12-2.692 6.805-4.644-.991 2.942-2.923 7.109-5.458 9.076zm-19.259-6.029c.212.338 2.455.758 5.294 1.112a19.909 19.909 0 0 0 5.711 5.034c-7.056.1-14.051.212-20.812.318 5.956-4.569 9.328-12.073 10.2-14-.244 4.057-.437 7.465-.393 7.536zM58.558 66.176A15.079 15.079 0 0 1 62 65.6a74.971 74.971 0 0 0 8.434 7.386.393.393 0 0 0 .385.032c.873-.44 2.1-1.949 2.765-2.161 1.507 6.376 1.608 6.167 1.806 7.083a.139.139 0 0 0 .276-.031 19.582 19.582 0 0 0-1.777-7.221l.063-.045c.934.442 3.156 1.5 3.648 1.616a.329.329 0 0 0 .415-.231 38.689 38.689 0 0 0 .954-5.488 26.376 26.376 0 0 1 2.936.686c.045.886 1.368 6.194 2.765 11.134-1.029-.163-1.668-.273-1.668-.293a.138.138 0 0 0-.16.165c0 .221-.05 1.256-.136 2.759a.7.7 0 0 0-.406-.079c-1 .125-1.046 2.471-1.217 3.654-1.954.763-8.992 1.49-14.7 7.631a5.554 5.554 0 0 0-1.126-2.741 6.674 6.674 0 0 0 1.891-1.132c1.158-1.254-1.548-19.951-8.59-22.148zM83.13 78.367c2.171.382 14.406 2.575 16.519 2.6-.921 19.517-.1 19.226-.37 19.362-1.323.664-14.7-.477-17.02-1.354.041-2.226.855-18.755.871-20.608zm8.776 22.593c.23 1.287.443 2.51.639 3.658a19.6 19.6 0 0 1-4.555-4.007c.588.064 2.133.218 3.916.349zM110.48 81c.348.725.86 4.083-.153 4.651a1.022 1.022 0 0 1-.756.049c-.374-.089-.572-.228-.122-.861a4.082 4.082 0 0 1 .468-.541.327.327 0 0 0-.228-.569s-.808.075-.844-.417c-.046-.536.7-.8.889-.85a.23.23 0 0 0 .007-.448c-.044 0-1.189-.172-1.26-.884 0-.392.259-.512.577-.522a3.255 3.255 0 0 1 1.422.392zm-.748-5.839a42.431 42.431 0 0 1 .323 5.138c.137 0-1.992-.517-1.854.845a1.283 1.283 0 0 0 .815 1.085 1.1 1.1 0 0 0-.379 1.872c.4.307.481.059.267.343-.341.464-.58 1.045-.229 1.507a1.723 1.723 0 0 0 1.483.476c.026 2.889.025 5.4.024 6.213-1.461 1.092-8.384 6.24-10.58 7.518.273-4.86.641-14.464.342-19.212 1.335-.312 7.004-3.995 9.788-5.787zm-10.359 4.19c.188.038-.394.37 7.055-4.5a14.916 14.916 0 0 1 1.6.559c-2.525 1.571-7.3 4.751-8.282 4.9s-11.626-1.5-14.727-1.976a6.472 6.472 0 0 1 1.146-1.461c1.246-.014 9.606 1.762 13.208 2.476zM86.3 51.977c.412 2.41.6 12.365-.183 16.538a7.637 7.637 0 0 0-3.883-1.487 23.207 23.207 0 0 0-3.242-.819c0-.331-.336-.468-.668-.542a10.817 10.817 0 0 0-1.857-.183c-.056-.291-.149-.756-.3-1.513q2.008.009 4.061.01a.14.14 0 0 0 .006-.279c-1.447-.058-2.822-.112-4.152-.162l-.167-.846a3.764 3.764 0 0 0 2.919-2.009 10.55 10.55 0 0 0 .7-3.344h.81a.139.139 0 0 0 .006-.278l-.8-.032a58.3 58.3 0 0 0-.3-5.824c3.972.193 6.677.445 7.05.77zm-7.189.913c.187 2.287.24 5.509-.7 7.612-.726 1.633-2.882 1.617-3.025 1.8-.1.135-.1-.066.55 3.6-.414.774-1.87 3.839-2.363 4.191-1.453-1.415-7.251-5.062-7.528-5.3-.076-1.122-.4-6.3-.853-6.747-.685-.684-3.365-1.5-2.55-3.322.183-.411 1.238-.077 1.655.122a.338.338 0 0 0 .481-.354c-.029-.21-.232-1.737.1-2.107.541-.213 1.033.226 1.251-.679a8.855 8.855 0 0 1 1.1-3.135 14.6 14.6 0 0 0 2.649-.951 6.815 6.815 0 0 0 2.638 1.106 6.91 6.91 0 0 0 3.564-.837 11 11 0 0 0 2.088-.028c.832 1.981.843 5.049.944 5.029zm-13.65-1.185c.044-.046.052-.072.024 0zm.054-.008v-.018c.04-.033.045.006 0 .021zm-4.427-6.742c-11.718.038-23.556-.04-25.067-.354-1.382-2.246-1.02-17.714.33-18.507 1.58-.931 47.877-.85 49.669.583.47 2.749.65 15.352-.58 17.93-.347.053-1.949.106-4.38.154a3.849 3.849 0 0 0-.251-.7c2.5-2.665.38-5.073-2.675-4.962a1.344 1.344 0 0 0-.316-.422h2.132a.139.139 0 0 0 .006-.278c-.88-.036-1.735-.07-2.57-.1a3.984 3.984 0 0 0-2.751-.812 3.211 3.211 0 0 0-1.345.461 9.713 9.713 0 0 0-3 .1c-8.413-.262-16.4-.375-31.058-.509a.141.141 0 0 0-.008.282c7.486.311 15.735.669 29.367.8a2.411 2.411 0 0 1-.755.274 6.747 6.747 0 0 0-1.472-.088 6.445 6.445 0 0 0-5.276 6.148zm.755 2.812c.907 1.159 2.676 1.317 4.493 1a14.358 14.358 0 0 0-.895 2.945c-.181.009-.708-.12-1.025.2-.445.443-.415 1.5-.367 2.124-.822-.262-1.718-.334-2.051.457-1.365-1.163-.634-4.993-.155-6.726zM36.3 69.9c-1.382-2.244-1.02-17.721.329-18.507.777-.458 12.33-.669 24.1-.6-.068 1.742.223 3.354 1.155 3.988a1.953 1.953 0 0 0 .228 1.706c-5.889-.12-12.662-.2-22.491-.29a.141.141 0 0 0-.008.281c6.349.234 13.283.535 23.119.711 1.076.953 1.891.992 2.024 1.682.167.873.344 2.784.467 4.326-6.7-.162-14.054-.254-25.714-.361a.141.141 0 0 0-.008.282c9.016.354 17.294.6 25.773.739.018.239.035.461.048.659-.667.022-2.615.242-3.039.326-.236.047-.464.124-.5.283a13.9 13.9 0 0 0-4.258.887c-2.048-.022-4.38 1.587-6.441 4.238-7.603-.026-13.73-.13-14.784-.35zm28.659 19.687a10.339 10.339 0 0 0 1.1 2.963 23.912 23.912 0 0 0-2.459 3.316.14.14 0 0 0 .236.15c6.683-10.4 17.349-10.1 17.8-11.138a23.973 23.973 0 0 1 .531-2.969c.176-.469.238-.4.407-.233.138.139.145-.672-.406 8.513-.978 1.354-4.122 10.49-11.436 15.645-4.809.075-9.494.15-13.99.222-3.434-2.987-6.33-8-8.029-11.607a94.774 94.774 0 0 0 16.246-4.862zM48.1 94.543c.1-.013.2-.028.308-.045 1.624 3.607 4.3 8.451 7.581 11.569l-8.816.138c.179-3.664.471-7.651.927-11.662zm-25.709 10.234c.923-.168 5.1-.083 13.771.006l.146 1.388c-6.615.148-10.254.322-14.11.351a8.849 8.849 0 0 1 .193-1.745zm-3.673 78.368c-.064.292-.85.324-1.172.294-.355-.035-1.077-.225-1.043-.484 1.368-10.342 10.652-62.236 12.026-70.223q1.464.009 3 .015c-.184 5.79-11.509 64.521-12.811 70.398zm30.169-9.988c-.5 0-1.469.009-1.968-.024.024-2.578 1.534-33.644 1.146-38.4 1.158-.039 2.563-.085 4.267-.134-.473 4.19-2.862 31.537-3.445 38.558zm-5.846-38.94a8.413 8.413 0 0 1-.035-4.439c1.09-.356 5.345-.663 11.208-.924a43.66 43.66 0 0 0 5.2 4.868c-5.624.131-11.127.293-16.373.495zm37.88-17.671c-9.9.592-24.209.659-33.988.528-.007-1.279 0-2.731.027-4.316 14.038-.029 30.417-.147 46.839-.311.2 1.323.3 2.07.3 2.093-2.075 1.607-6.723 1.623-13.178 2.006zm105.993 64.987c.043.322-1.206.668-1.942.4-.132-.047-.248-.1-.272-.213-1.413-6.377-12.652-64.686-12.817-70.415q1.6-.035 2.99-.069c1.442 7.808 10.955 62.075 12.041 70.297zm-4.892-75.828c3.772.171 3.43 4.869.53 4.964-25.583.841-141.024 1.823-167.049 1.2-1.33-.028-2.2-4.629.958-4.625 29.986.016 138.955-2.751 165.561-1.539zm-14.849-2.858a7.451 7.451 0 0 1 .115 2.159c-7.276-.085-15.938-.091-25.4-.043-.122-.657-.365-2.33.119-2.375 3.914-.351 21.067-.652 25.166.259zm-6.26-1.23c-3.486-.095-7.623-.031-11.261.109a43.722 43.722 0 0 1 1.059-4.273c3.121-.028 6.287-.068 9.4-.123a38.051 38.051 0 0 1 .802 4.287zm29.9-6.893c-2.868 2.2-67.442 2.494-71.744 1.858-.3-1.045 0-5.313.627-11.088 13.485-1.271 56.6-.781 72.44.01-.061.737-.71 8.751-1.321 9.22zm-2.791-10.09a53.432 53.432 0 0 0-6.03-22.125c-4.617-8.585-11.306-14.074-18.253-16.5a.34.34 0 0 0-.229-.251c-.427-.14-2.264-.732-3.008-.888.031-.619-.128-2.256-.178-7.063 16-.1 32 .132 33.993.576.162 1.671-.829 30.7-2.088 46.431a395.893 395.893 0 0 0-4.205-.18z" fill-rule="evenodd" fill="#202030" class="fill-000000"></path></svg>