<svg xmlns="http://www.w3.org/2000/svg" width="1440" height="616" fill="none" viewBox="0 0 1440 616">
  <path fill="#6675DE" fill-opacity=".41" d="M0 0h1440v616H0z"/>
  <g clip-path="url(#clip0)">
    <path fill="#6C63FF" d="M1006.19 174.767c-30.873-1.11-60.287-11.411-88.369-22.684-28.082-11.273-55.897-23.765-86.036-29.737-19.384-3.841-41.555-4.384-57.171 6.357-15.034 10.356-19.89 28.183-22.5 44.742-1.966 12.457-3.12 25.565 2.266 37.227 3.736 8.098 10.372 14.903 14.957 22.685 15.969 26.984 4.685 60.261-12.619 86.61-8.111 12.363-17.534 24.163-23.793 37.31-6.26 13.147-9.161 28.232-3.684 41.656 5.435 13.314 18.378 23.296 32.396 30.323 28.478 14.276 62.023 18.359 94.757 20.672 72.439 5.124 145.256 2.905 217.886.686 26.88-.824 53.88-1.657 80.32-5.953 14.68-2.386 29.84-6.169 40.5-15.312 13.53-11.603 16.89-31.255 7.82-45.802-15.21-24.406-57.25-30.466-67.9-56.662-5.85-14.414.16-30.471 8.67-43.845 18.24-28.681 48.82-53.845 50.43-86.629 1.11-22.522-13.6-45.068-36.33-55.725-23.82-11.209-56.86-9.789-74.43 8.699-18.1 19.05-49.9 26.358-77.17 25.382z" opacity=".1"/>
    <path fill="#6C63FF" d="M927.755 447.512l-163.303-.824-16.227-39.337 57.377-4.306-10-43.129 113.483-15.204-108.669-39.046 9.599-2.358 174.739 29.465-9.623 67.309-13.755 36.99-33.621 10.44z"/>
    <path fill="#6C63FF" d="M766.956 430.212s10.02-1.656 16.031 5.662c0 0-4.408 3.59-13.893-1.381l-2.138-4.281zM765.907 430.05s-6.393 8.132-3.244 17.186c0 0 5.21-2.155 5.777-13.133l-2.533-4.053zM760.163 416.681s4.007-7.599 20.038 3.038c0 0-2.138 5.108-9.218 4.694-7.08-.414-8.95-3.728-10.82-7.732zM759.127 416.133s-8.316-.986-9.122 18.69c0 0 5.272 1.13 9.017-5.094 3.745-6.223 2.209-9.715.105-13.596zM754.285 400.437s4.675-13.394 21.641-3.866c0 0-3.874 12.289-19.905 8.422l-1.736-4.556zM749.075 380.415s8.817-13.531 24.446-.986c0 0-5.477 12.703-23.11 5.799l-1.336-4.813zM747.204 361.361s10.287-12.432 25.764 0c0 0-9.752 10.908-25.764 3.175v-3.175zM745.601 342.853s10.42-12.979 25.249-.69c0 0-11.756 11.46-25.249 3.728v-3.038zM746.536 326.422s10.974-16.708 24.848-5.385c0 0-11.756 14.36-24.848 8.56v-3.175zM749.075 307.229s11.622-16.57 25.114-3.866c0 0-13.759 14.36-25.114 6.904v-3.038zM752.949 290.073s13.759-15.574 25.763-9.37c0 0-14.337 16.54-26.364 13.502l.601-4.132zM757.758 273.809s15.878-19.075 25.115-12.703c0 0-11.699 14.794-26.241 16.273l1.126-3.57zM764.7 254.946s13.898-15.573 24.051-11.707c0 0-11.89 16.155-25.917 16.57l1.866-4.863zM770.983 237.302s15.363-14.913 22.042-12.289c0 0-11.087 16.569-22.71 15.603l.668-3.314zM777.128 221.009s13.226-17.818 20.444-16.437c0 0-8.02 15.884-20.444 18.246v-1.809zM783.798 199.039s11.689-13.655 18.006-13.625c0 0-9.227 18.246-18.488 18.078l.482-4.453zM787.749 184.413l11.293-28.444s.563 25.712-12.729 33.72l1.436-5.276zM792.334 153.044s1.87-23.754.668-25.687c0 0 8.072 19.75-.745 36.181l.077-10.494zM753.846 400.121s-11.708-7.5-19.29 10.849c0 0 10.42 7.151 20.669-6.169l-1.379-4.68zM748.698 379.651s-14.361-6.771-21.327 12.388c0 0 11.093 7.89 22.634-7.545l-1.307-4.843zM746.536 362.5s-10.286-12.432-25.763 0c0 0 9.752 10.908 25.763 3.176V362.5zM745.248 342.853s-10.42-12.979-25.248-.69c0 0 11.756 11.46 25.248 3.728v-3.038zM746.536 326.895s-7.309-18.714-23.196-10.666c0 0 8.588 16.594 22.548 13.773l.648-3.107z"/>
    <path fill="#6C63FF" d="M749.995 307.135s-7.266-19.04-23.378-10.213c0 0 9.867 17.452 22.663 13.152l.715-2.939zM754.499 290.166s-2.862-20.874-16.221-22.743c0 0 2.834 22.013 14.423 26.506l1.798-3.763zM758.097 273.848s-1.117-25.15-12.162-26.028c0 0 .372 19.09 10.916 29.589l1.246-3.561zM765.845 254.241s-3.292-20.914-13.836-23.468c0 0 1.307 20.253 12.791 28.602l1.045-5.134zM772.233 237.474s-.11-21.786-6.55-24.987c0 0-3.994 19.726 4.685 27.769l1.865-2.782zM777.62 220.762s-.902-22.433-7.572-25.594c0 0-2.28 17.753 6.575 27.063l.997-1.469zM784.729 200.829s-.039-18.246-4.8-22.526c0 0-4.733 19.987 2.314 26.195l2.486-3.669z"/>
    <path fill="#6C63FF" d="M787.19 183.515l-4.632-30.367s-6.293 24.884 4.852 35.851l-.22-5.484zM788.092 153.33s-11.889-20.416-11.646-22.684c0 0 1.264 21.397 16.222 32.054l-4.576-9.37zM789.485 147.299s-11.221-28.996-16.298-31.344c0 0 16.031 8.423 17.233 30.516l-.935.828z"/>
    <path fill="#444053" d="M783.259 203.665l-.768-.242c9.47-31.921 11.832-52.272 6.656-57.376l.548-.602c5.492 5.385 3.264 25.515-6.436 58.22z"/>
    <path fill="#444053" d="M757.181 278.405l-1.136-.419a244.47 244.47 0 013.225-8.818c9.886-25.465 18.302-49.156 23.698-67.343l.988-.493c-5.406 18.222-13.674 42.819-23.569 68.32a198.255 198.255 0 00-3.206 8.753z"/>
    <path fill="#444053" d="M781.074 454.1c-.153-.173-15.501-18.039-26.203-48.54a184.901 184.901 0 01-10.338-55.616c-.735-23.734 4.084-50.236 12.338-74.311l.896 1.085c-18.53 54.033-11.168 100.334-1.402 128.216 10.587 30.225 25.763 47.894 25.911 48.071l-1.202 1.095z"/>
    <path fill="#D5D6DB" d="M1020.92 416.168s-10.81 13.645-2.22 34.273l-86.361 38.711-8.287 1.795-3.817-17.259 2.553-21.782v-11.905l98.132-23.833z"/>
    <path fill="#6C63FF" d="M748.225 407.351l119.524-22.522 158.371 26.077-98.365 36.606-179.53-40.161z"/>
    <path fill="#6C63FF" d="M748.225 407.351l119.524-22.522 158.371 26.077-98.365 36.606-179.53-40.161z"/>
    <path fill="#6C63FF" d="M748.225 407.346s-11.178 21.89 1.704 42.109l177.243 39.697s-11.002-17.437.568-41.64l-179.515-40.166z"/>
    <path fill="#000" d="M748.225 407.346s-11.178 21.89 1.704 42.109l177.243 39.697s-11.002-17.437.568-41.64l-179.515-40.166z" opacity=".1"/>
    <path fill="#000" d="M753.507 414.935s-6.388 16.017 0 26.383z" opacity=".1"/>
    <path fill="#6C63FF" d="M927.172 489.152l98.948-43.642s5.54 1.232 1.96 5.424-98.999 42.41-98.999 42.41l-179.152-43.889 177.243 39.697z"/>
    <path fill="#000" d="M927.172 489.152l98.948-43.642s5.54 1.232 1.96 5.424-98.999 42.41-98.999 42.41l-179.152-43.889 177.243 39.697z" opacity=".1"/>
    <path fill="#000" d="M919.062 451.92s-9.542 11.836 0 29.589zM965.258 451.72l-42.8 14.759.151.468 42.8-14.759-.151-.468zM973.831 450.251l-51.387 20.198.17.461L974 450.712l-.169-.461zM981.704 450.181l-58.973 24.949.181.457 58.973-24.95-.181-.456zM990.265 448.044l-66.846 31.211.197.45 66.846-31.211-.197-.45zM997.458 448.054l-73.51 33.211.192.452 73.509-33.211-.191-.452zM1013.19 445.293l-88.133 39.345.189.453 88.134-39.346-.19-.452z" opacity=".1"/>
    <path fill="#fff" d="M792.629 409.757l83.971-18.246 51.155 10.109-68.808 22.931-66.318-14.794z" opacity=".3"/>
    <path fill="#6C63FF" d="M1026.12 410.906s4.35 1.81 1.8 4.606-100.18 32-100.18 32l98.38-36.606z"/>
    <path fill="#D5D6DB" d="M1068.29 368.738s-10.81 13.64-2.22 34.273l-86.354 38.711-8.288 1.805-3.816-17.26 2.59-21.777v-11.919l98.088-23.833z"/>
    <path fill="#3A3768" d="M795.602 359.916l119.519-22.517 158.379 26.077-98.369 36.606-179.529-40.166z"/>
    <path fill="#3A3768" d="M795.583 359.916s-11.184 21.89 1.698 42.109l177.244 39.697s-10.997-17.452.587-41.645l-179.529-40.161z"/>
    <path fill="#000" d="M795.583 359.916s-11.184 21.89 1.698 42.109l177.244 39.697s-10.997-17.452.587-41.645l-56.05-12.541-123.479-27.62z" opacity=".1"/>
    <path fill="#000" d="M800.878 367.505s-6.383 16.012 0 26.383z" opacity=".1"/>
    <path fill="#3A3768" d="M974.544 441.722l98.956-43.642s5.53 1.232 1.95 5.424-98.998 42.41-98.998 42.41L797.3 402.025l177.244 39.697z"/>
    <path fill="#000" d="M974.544 441.722l98.956-43.642s5.53 1.232 1.95 5.424-98.998 42.41-98.998 42.41L797.3 402.025l177.244 39.697z" opacity=".1"/>
    <path fill="#000" d="M966.433 404.49s-9.542 11.836 0 29.589zM1012.63 404.295l-42.797 14.76.151.467 42.796-14.759-.15-.468zM1021.21 402.824l-51.385 20.198.17.461 51.385-20.198-.17-.461zM1029.08 402.747l-58.975 24.95.181.456 58.974-24.95-.18-.456zM1037.65 400.611l-66.851 31.211.197.45 66.844-31.211-.19-.45zM1044.83 400.615l-73.509 33.211.192.452 73.507-33.211-.19-.452zM1060.57 397.854l-88.136 39.345.189.452 88.137-39.345-.19-.452z" opacity=".1"/>
    <path fill="#fff" d="M840.006 362.327l83.97-18.246 51.155 10.109-68.808 22.931-66.317-14.794z" opacity=".45"/>
    <path fill="#3A3768" d="M1073.5 363.476s4.34 1.81 1.79 4.601c-2.54 2.791-100.159 32-100.159 32l98.369-36.601z"/>
    <path fill="#D5D6DB" d="M1072.78 314.478s-10.82 24.494-2.23 45.122l-86.354 27.862-8.268 1.81-3.817-17.26 2.552-21.782v-11.919l98.117-23.833z"/>
    <path fill="#6C63FF" d="M800.101 305.661l119.524-22.522L1078 309.216l-98.37 36.606-179.529-40.161z"/>
    <path fill="#6C63FF" d="M800.101 305.656s-11.198 21.89 1.684 42.109l177.244 39.697s-11.002-17.452.582-41.64l-179.51-40.166z"/>
    <path fill="#000" d="M800.101 305.656s-11.198 21.89 1.684 42.109l177.244 39.697s-11.002-17.452.582-41.64l-179.51-40.166z" opacity=".1"/>
    <path fill="#000" d="M805.382 313.245s-6.388 16.017 0 26.383z" opacity=".1"/>
    <path fill="#6C63FF" d="M979.048 387.462L1078 354.669s5.53 1.232 1.96 5.424c-3.58 4.192-99.004 31.561-99.004 31.561l-179.152-43.889 177.244 39.697z"/>
    <path fill="#000" d="M979.048 387.462L1078 354.669s5.53 1.232 1.96 5.424c-3.58 4.192-99.004 31.561-99.004 31.561l-179.152-43.889 177.244 39.697z" opacity=".1"/>
    <path fill="#000" d="M970.937 350.23s-9.542 11.836 0 29.589zM1017.14 350.034l-42.802 14.76.151.467 42.801-14.759-.15-.468zM1025.71 348.566l-51.383 20.197.17.461 51.383-20.197-.17-.461zM1033.58 348.491l-58.977 24.95.18.456 58.977-24.95-.18-.456zM1042.15 346.351l-66.847 31.211.197.449 66.85-31.211-.2-.449zM1049.34 346.36l-73.512 33.21.191.452 73.511-33.211-.19-.451zM1065.07 343.601l-88.131 39.345.189.453 88.132-39.345-.19-.453z" opacity=".1"/>
    <path fill="#fff" d="M844.505 308.067l83.97-18.246 51.155 10.109-68.808 22.931-66.317-14.794z" opacity=".3"/>
    <path fill="#6C63FF" d="M1078 309.216s4.34 1.81 1.79 4.606c-2.54 2.796-100.16 32-100.16 32l98.37-36.606zM868.102 159.519s-18.13-1.129-16.011 12.018c0 0-.425 2.323 1.612 3.378 0 0 .034-.986 1.861-.646a7.874 7.874 0 001.975.099 4.045 4.045 0 002.41-1.026s5.1-2.18 7.085-10.8c0 0 1.469-1.879 1.431-2.362l-3.073 1.351s1.045 2.283.225 4.182c0 0-.101-4.098-.692-4.004-.119 0-1.589.794-1.589.794s1.799 3.979.439 6.869c0 0 .515-4.902-1.002-6.583l-2.156 1.302s2.104 4.107.677 7.461c0 0 .367-5.144-1.131-7.146l-1.956 1.578s1.98 4.049.773 6.83c0 0-.157-5.987-1.193-6.44 0 0-1.712 1.558-1.97 2.199 0 0 1.355 2.959.51 4.493 0 0-.51-3.99-.954-4.01 0 0-1.703 2.644-1.88 4.439a9.829 9.829 0 011.465-4.705 5.052 5.052 0 00-2.605 1.396s.263-1.869 3.03-2.032c0 0 1.407-2.007 1.784-2.125 0 0-2.753-.242-4.418.522 0 0 1.47-1.76 4.919-.986l1.908-1.627s-3.616-.493-5.152.054c0 0 1.77-1.558 5.673-.424l2.104-1.297s-3.087-.686-4.924-.439c0 0 1.937-1.08 5.539.089l1.498-.696s-2.257-.458-2.92-.532c-.663-.074-.696-.262-.696-.262a7.639 7.639 0 014.246.494s3.22-1.199 3.158-1.406z"/>
    <path fill="#6C63FF" d="M1123.16 213.557s-18.13-1.129-16.01 12.018c0 0-.42 2.323 1.61 3.378 0 0 .04-.986 1.86-.646.66.113 1.32.146 1.98.099a4.004 4.004 0 002.38-1.026s5.11-2.18 7.09-10.8c0 0 1.47-1.879 1.43-2.362l-3.06 1.351s1.04 2.283.22 4.182c0 0-.1-4.098-.69-4.004-.11 0-1.59.794-1.59.794s1.8 3.979.44 6.869c0 0 .52-4.902-1-6.583l-2.16 1.302s2.11 4.107.68 7.461c0 0 .37-5.144-1.13-7.146l-1.95 1.578s1.97 4.049.77 6.83c0 0-.16-5.986-1.2-6.44 0 0-1.71 1.558-1.97 2.199 0 0 1.36 2.959.52 4.493 0 0-.52-3.99-.96-4.009 0 0-1.7 2.643-1.88 4.438a9.875 9.875 0 011.47-4.705c-.98.193-1.89.678-2.61 1.396 0 0 .27-1.869 3.03-2.032 0 0 1.41-2.007 1.79-2.13 0 0-2.75-.237-4.42.527 0 0 1.47-1.76 4.92-.986l1.91-1.627s-3.63-.493-5.16.054c0 0 1.77-1.558 5.68-.424l2.1-1.297s-3.09-.686-4.93-.439c0 0 1.94-1.08 5.54.089l1.5-.696s-2.26-.458-2.92-.532c-.66-.074-.7-.261-.7-.261a7.587 7.587 0 014.25.493s3.23-1.199 3.17-1.406zM898.637 240.739s-7.901-16.929-17.958-8.586c0 0-2.171.75-2.066 3.102 0 0 .835-.448 1.431 1.366.223.642.518 1.254.878 1.825a4.146 4.146 0 002.047 1.677s4.327 3.54 12.576 1.124c0 0 2.305.409 2.682.123l-2.634-2.105s-1.431 2.056-3.426 2.238c0 0 3.416-2.086 3.049-2.569-.076-.099-1.431-1.05-1.431-1.05s-2.486 3.565-5.587 3.748c0 0 4.389-1.924 5.067-4.118l-2.147-1.312s-2.448 3.906-5.974 4.251c0 0 4.523-2.175 5.482-4.502l-2.28-.987s-2.457 3.758-5.396 4.029c0 0 4.981-3.062 4.857-4.221 0 0-2.152-.779-2.82-.705 0 0-1.823 2.658-3.54 2.658 0 0 3.115-2.412 2.925-2.801 0 0-3.063-.247-4.676.493a9.021 9.021 0 014.69-.986 5.135 5.135 0 00-2.452-1.672s1.708-.671 3.191 1.741c0 0 2.386.291 2.667.572 0 0-1.14-2.594-2.595-3.723 0 0 2.204.458 3.211 3.945l2.314.947s-1.331-3.512-2.558-4.621c0 0 2.176.833 3.126 4.931l2.118 1.263s-.921-3.122-2.028-4.656c0 0 1.856 1.223 2.624 5.04l1.322 1.016s-.716-2.263-.954-2.895c-.239-.631-.12-.759-.12-.759a8.234 8.234 0 011.661 4.068s2.552 2.259 2.724 2.111zM1081.74 189.64s-7.9-16.929-17.96-8.585c0 0-2.16.749-2.06 3.101 0 0 .84-.443 1.43 1.366.22.644.52 1.259.88 1.83.49.772 1.2 1.359 2.04 1.672 0 0 4.33 3.54 12.58 1.129 0 0 2.3.404 2.68.118l-2.62-2.11s-1.43 2.061-3.42 2.243c0 0 3.42-2.09 3.05-2.574-.08-.098-1.43-1.05-1.43-1.05s-2.48 3.565-5.59 3.748c0 0 4.39-1.924 5.07-4.113l-2.18-1.302s-2.44 3.901-5.97 4.251c0 0 4.52-2.18 5.48-4.507l-2.28-.987s-2.46 3.763-5.39 4.029c0 0 4.97-3.062 4.85-4.216 0 0-2.15-.784-2.82-.705 0 0-1.82 2.653-3.54 2.653 0 0 3.12-2.412 2.93-2.801 0 0-3.06-.247-4.68.493a9.015 9.015 0 014.69-.986 5.087 5.087 0 00-2.45-1.672s1.71-.671 3.19 1.741c0 0 2.39.296 2.67.577 0 0-1.14-2.599-2.6-3.728 0 0 2.2.463 3.21 3.969l2.32.947s-1.33-3.516-2.56-4.625c0 0 2.18.833 3.12 4.931l2.13 1.262s-.93-3.116-2.04-4.655c0 0 1.86 1.223 2.63 5.04l1.32 1.016s-.71-2.264-.96-2.895c-.24-.631-.11-.754-.11-.754a8.32 8.32 0 011.65 4.068s2.59 2.239 2.74 2.081zM1106.97 273.38s-7.89-16.935-17.97-8.591c0 0-2.17.75-2.06 3.102 0 0 .83-.444 1.43 1.366.22.644.51 1.258.87 1.83a4.144 4.144 0 002.05 1.671s4.33 3.546 12.58 1.13c0 0 2.3.409 2.68.118l-2.63-2.106s-1.44 2.062-3.43 2.244c0 0 3.41-2.091 3.04-2.574-.07-.099-1.43-1.05-1.43-1.05s-2.48 3.565-5.58 3.752c0 0 4.39-1.928 5.07-4.117l-2.15-1.312s-2.45 3.906-5.98 4.251c0 0 4.52-2.18 5.49-4.508l-2.29-.986s-2.45 3.758-5.39 4.029c0 0 4.98-3.062 4.86-4.221 0 0-2.15-.784-2.82-.705 0 0-1.82 2.653-3.55 2.653 0 0 3.12-2.412 2.93-2.801 0 0-3.06-.247-4.68.493a9.092 9.092 0 014.7-.986 5.114 5.114 0 00-2.45-1.672s1.7-.676 3.19 1.741c0 0 2.38.291 2.66.572 0 0-1.14-2.594-2.59-3.728 0 0 2.2.463 3.21 3.969l2.31.947s-1.33-3.516-2.55-4.621c0 0 2.17.829 3.12 4.932l2.12 1.257s-.93-3.116-2.03-4.655c0 0 1.86 1.223 2.63 5.045l1.32.986s-.72-2.263-.96-2.895c-.23-.631-.12-.754-.12-.754a8.141 8.141 0 011.66 4.068s2.6 2.274 2.74 2.126zM816.351 493.699c6.058 0 10.969-.567 10.969-1.267s-4.911-1.268-10.969-1.268-10.969.568-10.969 1.268c0 .7 4.911 1.267 10.969 1.267zM744.447 472.159c6.058 0 10.968-.568 10.968-1.268 0-.7-4.91-1.267-10.968-1.267s-10.969.567-10.969 1.267 4.911 1.268 10.969 1.268zM871.161 508.005c6.057 0 10.968-.568 10.968-1.267 0-.7-4.911-1.268-10.968-1.268-6.058 0-10.969.568-10.969 1.268 0 .699 4.911 1.267 10.969 1.267zM1152.03 476.844c6.06 0 10.97-.568 10.97-1.268 0-.7-4.91-1.267-10.97-1.267-6.06 0-10.97.567-10.97 1.267s4.91 1.268 10.97 1.268zM1060.76 470.694c6.05 0 10.97-.567 10.97-1.267s-4.92-1.268-10.97-1.268c-6.06 0-10.97.568-10.97 1.268 0 .7 4.91 1.267 10.97 1.267zM1001.71 500.687c7.16 0 12.97-1.031 12.97-2.303s-5.81-2.303-12.97-2.303c-7.164 0-12.972 1.031-12.972 2.303s5.808 2.303 12.972 2.303z" opacity=".1"/>
    <path fill="#6C63FF" d="M1007.5 475.236s-18.066 9.646-8.734 21.008c0 0 .878 2.465 3.414 2.293 0 0-.5-.957 1.43-1.721a9.377 9.377 0 001.96-1.07 4.706 4.706 0 001.74-2.412s3.69-5.109.83-14.562c0 0 .37-2.673.05-3.107l-2.2 3.112s2.27 1.573 2.53 3.886c0 0-2.38-3.881-2.86-3.452-.1.088-1.09 1.701-1.09 1.701s3.93 2.757 4.23 6.337c0 0-2.22-5.015-4.61-5.73l-1.37 2.524s4.3 2.703 4.77 6.766c0 0-2.49-5.153-5.04-6.194l-1.01 2.668s4.14 2.722 4.53 6.105c0 0-3.47-5.656-4.71-5.478 0 0-.79 2.505-.68 3.279 0 0 2.92 2.022 2.98 4.009 0 0-2.7-3.526-3.12-3.294 0 0-.17 3.546.66 5.39 0 0-1.432-2.633-1.2-5.39a5.96 5.96 0 00-1.73 2.88s-.777-1.948 1.78-3.743c0 0 .25-2.757.54-3.097 0 0-2.768 1.401-3.947 3.117 0 0 .435-2.56 4.197-3.832l.95-2.702s-3.758 1.647-4.918 3.097c0 0 .835-2.54 5.218-3.758l1.29-2.466s-3.33 1.164-4.967 2.466c0 0 1.265-2.185 5.377-3.191l1.05-1.553s-2.42.892-3.1 1.213c-.68.321-.81.163-.81.163a8.641 8.641 0 014.34-2.042s2.39-3.052 2.23-3.22z"/>
    <path fill="url(#paint0_linear)" d="M1061.11 293.056c-3.12-8.763-20.3-9.587-27.75-7.353-5.29 1.593-16.46 3.388-22.42 4.291l-.39-.38c.77-.237.79-.819.7-1.682-.06-1.137-.04-2.277.05-3.412 3.65 1.173 6.9-1.603 6.9-1.603 4.3-1.972 3.14-10.415 3.96-12.723.62-1.726 1.28-11.894 1.58-16.964h.06l.03-1.701c.05-.735.07-1.164.07-1.164s.42-12.397 1.24-14.908c.76-2.307 1.38-13.936 1.47-15.78v-.242l-.06-1.075c.05-.784.06-1.657.06-2.574 0-4.216-.42-9.527-.48-10.385v-.449c.04-1.8-.18-10.815-7.6-14.222-2.74-1.263-6.02-2.767-9.21-4.231-.82-7.323-2.69-14.607-2.53-21.984 0-1.11.1-2.219.2-3.324 0 .32-.03.646-.04.986v2.15c.29-9.226 3.66-18.502 3.34-27.532-.03.883-.09 1.771-.17 2.658.17-3.054-.14-6.115-.91-9.068-.29-1.041-.68-2.116-1.5-2.811a6.075 6.075 0 00-2.62-1.07 50.75 50.75 0 00-6.863-1.322 11.079 11.079 0 00-1.545-3.102c-4.838-6.864-12.004-13.315-20.478-14.794-4.251-.74-9.141-.123-12.032 3.018a9.135 9.135 0 00-.849.888c-1.556 1.918-2.224 4.438-3.817 6.351-.105.129-.225.247-.339.37-3.12 2.885-7.982 3.487-11.451 6.076-.611.464-1.184.981-1.712 1.543a29.838 29.838 0 00-3.741 4.7c-1.56 2.268-3.163 4.63-3.659 7.338-.997 5.424 2.576 10.568 3.239 16.027 1.479 12.215-11.598 23.054-9.122 35.106a16.228 16.228 0 004.208 7.806c-5.1 4.774-9.442 9.405-9.442 9.405v.276h-.806l.081.986h-.081l.444 5.351-.444 7.791v.735h.029c.148 2.855.734 13.122 1.431 15.287.821 2.51 1.236 14.908 1.236 14.908s.906 17.521 1.736 19.839c.83 2.317-.348 10.735 3.96 12.723a8.92 8.92 0 004.328 1.854c-.22 1.844-.082 3.181.629 3.6a2.04 2.04 0 001.002.296c-.292.448-.552.917-.777 1.405a19.641 19.641 0 01-5-1.218c-4.628-1.973-19.986-6.411-24.447-3.289-4.461 3.121-15.196 5.952-10.239 18.517 4.957 12.565 7.266 12.881 7.266 12.881a17.952 17.952 0 013.965 4.118c1.489 2.312 15.358 7.604 18.827 7.604a32.712 32.712 0 014.413.227s-3.764 3.412-3.264 5.395c.501 1.982-1.145 17.851-1.145 17.851s3.817 3.975 5.449-1.238l.057.079c.306.429 1.956 2.367 5.062-.079a28.309 28.309 0 014.037-2.643l15.038-2.199a41.1 41.1 0 014.709-.035c2.385.202 4.728-1.257 6.202-2.387 3.116 1.223 6.618 2.56 8.283 3.048 3.378.986 18.903 5.291 22.532 3.945.76-.31 1.43-.804 1.96-1.44l3.46.114-1.62.335s3.16.054 7.45.113l-.18.109 5.39-.049c7.88.074 16.73.098 17.9-.173 1.82-.419 11.29-.123 14.08 0h.78s10.4-2.145 6.11-13.058c-3.3-8.384-13.45-10.82-17.95-11.49 1.27-.262 2.36-.464 3.08-.582 3.15-.494 9.26-3.452 9.75-4.463.5-1.011 5.62-3.945 6.94-5.617 1.32-1.672 5.09-13.522 1.96-22.285zm-86.189 24.524l-.511.172-.343.119-.659.67c-.524-.365-1.087-.749-1.674-1.144 1.035.064 2.099.128 3.187.183z"/>
    <path fill="#BE6F72" d="M1005.34 265.583s7.3 19.726 11.45 17.753c4.15-1.972 3.03-10.356 3.82-12.654s1.67-19.725 1.67-19.725.4-12.329 1.19-14.824c.74-2.293 1.33-13.857 1.43-15.677v-.241l-.79-14.301-4.45-1.149-10.34 3.945-1.43 8.447-.55 3.299-.24 1.406-1.76 43.721z"/>
    <path fill="#000" d="M1007.75 262.279s6.96 5.893 9.06 6.411c2.1.518 3.39 5.114 3.39 5.114" opacity=".1"/>
    <path fill="#BE6F72" d="M948.256 266.446s-7.3 19.726-11.451 17.753c-4.151-1.972-3.025-10.356-3.817-12.654-.792-2.298-1.67-19.725-1.67-19.725s-.4-12.329-1.192-14.824c-.735-2.293-1.331-13.857-1.432-15.677v-.241l.792-14.301 4.457-1.149 10.334 3.945 1.431 8.447.558 3.299.239 1.406 1.751 43.721z"/>
    <path fill="#3E373A" d="M995.789 160.885h-16.293v26.25h16.293v-26.25z"/>
    <path fill="#000" d="M995.789 160.885h-16.293v26.25h16.293v-26.25z" opacity=".1"/>
    <path fill="#4B4B5B" d="M945.393 286.093s-5.568 6.327-3.502 7.476 15.43 22.684 15.43 22.684 43.889 5.587 52.169-2.796c8.28-8.383 8.11-23.36 8.11-23.36s-6.65 1.48-7.37.676c-.73-.804-4.71-4.68-4.71-4.68s-56.31-3.531-60.127 0z"/>
    <path fill="#000" d="M945.393 286.093s-5.568 6.327-3.502 7.476 15.43 22.684 15.43 22.684 43.889 5.587 52.169-2.796c8.28-8.383 8.11-23.36 8.11-23.36s-6.65 1.48-7.37.676c-.73-.804-4.71-4.68-4.71-4.68s-56.31-3.531-60.127 0z" opacity=".02"/>
    <path fill="#BE6F72" d="M1024.41 206.121l-14.31 11.835-4.33.325-1.59.119-26.683 2.022-27.672-2.091-4.117-.311-5.248-.394-10.974-10.849s7.768-8.601 14.571-14.405c2.681-2.293 5.215-4.147 7.061-4.877l.315-.114a7.863 7.863 0 003.025-2.179c5.372-5.726 10.339-19.854 10.339-19.854s23.697-12.654 20.835 3.945c-2.863 16.599 10.654 12.496 10.654 12.496l4.454 2.101 1.76.833 4.49 2.126 10.13 4.803c7.95 3.782 7.29 14.469 7.29 14.469z"/>
    <path fill="#000" d="M976.386 178.865c11.77 0 21.312-9.863 21.312-22.028 0-12.166-9.542-22.029-21.312-22.029-11.771 0-21.313 9.863-21.313 22.029 0 12.165 9.542 22.028 21.313 22.028zM1024.44 221.812h-95.746v-.241l.792-14.301s7.768-8.601 14.571-14.405l60.113-2.466 2.8-3.047 10.13 4.803c7.95 3.777 7.31 14.464 7.31 14.464s1.09 12.382.03 15.193z" opacity=".1"/>
    <path fill="#E7C7CA" d="M1024.44 221.319h-95.746v-.241l.792-14.301s7.768-8.601 14.571-14.405l60.113-2.466 2.8-3.047 10.13 4.803c7.95 3.777 7.31 14.464 7.31 14.464s1.09 12.382.03 15.193z"/>
    <path fill="#000" d="M961.037 181.217s15.105 19.893 35.225-.409c20.118-20.303 2.228 45.285 2.228 45.285l-43.417 5.326 5.964-50.202z" opacity=".1"/>
    <path fill="#E7C7CA" d="M961.037 182.204s15.105 19.893 35.225-.41c20.118-20.302 2.228 45.285 2.228 45.285l-43.417 5.326 5.964-50.201z"/>
    <path fill="#000" d="M1002.48 185.695l1.6 25.194 1.71 8.384 1.31 6.411s3.34 49.313 2.38 51.779c-.95 2.466.48 4.438.68 5.75.2 1.312-.2 4.606-.04 6.085.15 1.48 0 2.136-3.66 1.608-3.65-.528-8.748-1.445-8.748-1.445s-12.882.986-17.333-.656c-4.451-1.642-12.882-1.647-12.882-1.647s-12.724.33-16.856-.163c-4.132-.493-6.364 5.262-9.065 3.615-2.7-1.647 3.178-17.585 5.086-22.191 1.908-4.606-2.543-16.274-2.543-16.274l5.725-32.828 1.274-7.441v-23.395l.315-.113a7.866 7.866 0 003.025-2.18l1.431 23.543 44.851 1.647v-26.497" opacity=".1"/>
    <path fill="#E7C7CA" d="M1002.48 184.709l1.6 25.194 1.71 8.383 1.31 6.411s3.34 49.314 2.38 51.78c-.95 2.465.48 4.438.68 5.75.2 1.311-.2 4.606-.04 6.085.15 1.479 0 2.135-3.66 1.608-3.65-.528-8.748-1.445-8.748-1.445s-12.882.986-17.333-.656c-4.451-1.642-12.882-1.647-12.882-1.647s-12.724.33-16.856-.163c-4.132-.493-6.364 5.262-9.065 3.615-2.7-1.647 3.178-17.586 5.086-22.191 1.908-4.606-2.543-16.274-2.543-16.274l5.725-32.828 1.274-7.442v-23.394l.315-.113a7.876 7.876 0 003.025-2.18l1.431 23.542 44.851 1.647v-26.496"/>
    <path fill="#000" d="M1007.64 132.13c-.28-1.03-.65-2.1-1.44-2.791a5.739 5.739 0 00-2.51-1.065 48.417 48.417 0 00-6.627-1.312 11.128 11.128 0 00-1.431-3.072c-4.676-6.825-11.594-13.261-19.733-14.715-4.261-.765-9.199-.079-11.928 3.393-1.498 1.908-2.142 4.438-3.654 6.312-2.915 3.639-8.178 4.088-11.851 6.904-1.961 1.479-3.383 3.624-4.772 5.705-1.502 2.254-3.048 4.601-3.525 7.294-.955 5.38 2.485 10.509 3.12 15.938 1.431 12.146-11.164 22.921-8.784 34.904 1.389 6.988 7.634 11.91 14.094 14.405 2.276.883 4.876 1.76 5.94 4.019.477.986.558 2.125 1.007 3.121 1.507 3.324 6.464 3.452 9.127 1.031 2.662-2.421 3.502-6.337 3.817-9.991 1.278-15.958-4.905-31.723-4.185-47.721.215-4.838 1.532-10.326 5.726-12.516 5.644-2.958 12.433 1.973 18.645 1.031a39.44 39.44 0 011.784 23.33c-.987 4.256-2.695 8.384-2.82 12.773-.186 6.682 3.302 12.787 6.317 18.694a10.164 10.164 0 011.274 3.605 8.93 8.93 0 01-.682 3.773c-1.703 4.739-4.642 9.138-4.976 14.182-.098.589.03 1.194.358 1.687.336.329.77.53 1.23.572 5.153.912 9.609-3.807 12.119-8.546a41.075 41.075 0 004.79-17.023c.52-10.04-2.97-19.918-2.75-29.968.25-11.426 5.24-22.931 2.32-33.953z" opacity=".1"/>
    <path fill="#3E373A" d="M1008.11 131.637c-.27-1.03-.65-2.101-1.43-2.791a5.777 5.777 0 00-2.52-1.065 48.023 48.023 0 00-6.62-1.312 11.115 11.115 0 00-1.431-3.072c-4.676-6.825-11.594-13.261-19.733-14.715-4.26-.765-9.198-.079-11.928 3.392-1.498 1.909-2.142 4.439-3.654 6.313-2.915 3.639-8.178 4.088-11.851 6.904-1.961 1.479-3.383 3.624-4.771 5.705-1.503 2.254-3.049 4.601-3.526 7.294-.954 5.38 2.486 10.508 3.12 15.938 1.431 12.146-11.164 22.921-8.783 34.904 1.388 6.988 7.633 11.909 14.093 14.405 2.276.882 4.876 1.76 5.94 4.019.477.986.558 2.125 1.007 3.121 1.508 3.324 6.465 3.452 9.127 1.031 2.662-2.421 3.502-6.337 3.817-9.991 1.278-15.958-4.905-31.724-4.185-47.721.215-4.838 1.532-10.326 5.726-12.516 5.644-2.959 12.433 1.973 18.645 1.031a39.44 39.44 0 011.784 23.33c-.987 4.256-2.695 8.384-2.819 12.773-.186 6.682 3.301 12.787 6.316 18.694a10.164 10.164 0 011.274 3.605 8.933 8.933 0 01-.682 3.773c-1.703 4.739-4.642 9.138-4.976 14.182-.098.589.03 1.194.358 1.687.336.329.77.53 1.231.572 5.152.912 9.611-3.807 12.121-8.546a40.913 40.913 0 004.78-17.023c.52-10.041-2.96-19.918-2.75-29.968.25-11.426 5.25-22.931 2.32-33.953z"/>
    <path fill="#C3C7D9" d="M997.574 349.984l18.926.626-2.71-14.508-14.503 1.425-1.713 12.457z"/>
    <path fill="#4B4B5B" d="M1056.22 315.597c-1.27 1.643-6.2 4.601-6.68 5.588-.48.986-6.36 3.945-9.38 4.438-3.03.493-12.57 2.633-14.32 3.782-1.25.829-11.32 3.452-17.94 4.907-1.79.438-3.61.776-5.44 1.011-2.859.163-34.185-10.849-34.185-10.849l6.04-6.411.334-.118c1.708-.597 9.599-3.354 13.979-4.665 4.933-1.48 10.659-7.56 10.659-7.56s8.423-2.959 9.543-3.289c1.12-.331-2.86-11.505-2.86-11.505s18.28-2.624 25.44-4.848c7.16-2.224 23.7-1.4 26.72 7.313 3.02 8.714-.62 20.564-1.91 22.206z"/>
    <path fill="#E7C7CA" d="M972.884 343.376s-3.655 3.945-7.314 3.619c-3.66-.325-16.456.987-16.456.987a25.464 25.464 0 00-6.445 3.861c-2.992 2.436-4.58.493-4.876.079l-.053-.079c-1.593 5.183-5.248 1.233-5.248 1.233s1.589-15.781 1.102-17.753c-.486-1.973 3.144-5.361 3.144-5.361l4.294-1.129 10.878-2.88 15.587 5.587 5.387 11.836z"/>
    <path fill="#000" d="M941.013 328.833l-3.22 23.089-.053-.079c-1.593 5.183-5.248 1.233-5.248 1.233s1.589-15.781 1.102-17.753c-.486-1.973 3.144-5.361 3.144-5.361l4.275-1.129zM963.523 263.157s8.426 2.959 15.744 0zM992.287 268.749s3.498 1.805 6.203 0zM992.287 273.03s5.883.813 7-.829zM990.379 282.227s11.051-1.48 13.791-3.452zM956.662 278.775s6.202 3.614 10.816 3.452zM1007.89 334.312c-1.79.438-3.6.776-5.43 1.011-2.863.162-34.19-10.849-34.19-10.849l6.04-6.411.334-.118a58.055 58.055 0 012.295 1.745c2.629 2.141 5.167-.656 6.121-.656.954 0 9.223 7.067 9.223 7.067s7.633 1.81 8.907 3.452c1.27 1.642 5.73 1.317 6.52 2.466.24.355.26 1.228.18 2.293z" opacity=".1"/>
    <path fill="#4B4B5B" d="M949.114 291.596s-7.719.459-12.171-1.479c-4.451-1.938-19.241-6.411-23.535-3.27-4.294 3.142-14.633 5.918-9.862 18.414 4.771 12.496 6.999 12.822 6.999 12.822a17.533 17.533 0 013.817 4.093c1.432 2.303 14.79 7.56 18.13 7.56s9.223 0 17.491 5.917c8.268 5.918 15.744 6.579 15.744 6.579s10.496 4.438 13.765 5.424c3.268.987 18.201 5.257 21.698 3.945 3.51-1.311 5.73-9.537 5.73-9.537s1.59-7.397.79-8.546c-.79-1.149-5.25-.824-6.52-2.466-1.264-1.642-8.903-3.452-8.903-3.452s-8.249-7.071-9.203-7.071c-.954 0-3.492 2.791-6.121.656a139.014 139.014 0 00-16.465-10.849c-6.04-3.29-11.384-18.74-11.384-18.74z"/>
    <path fill="#000" d="M933.594 296.365a8.822 8.822 0 014.152.122 9.02 9.02 0 013.668 2.013c3.817 3.289 16.66 9.893 16.66 9.893M1029.02 296.158s-17.01 2.663-20.19 6.277z" opacity=".1"/>
    <path fill="#E7C7CA" d="M1048.59 350.61h-.75c-2.69-.098-11.81-.394-13.57 0-2.06.493-29.42 0-29.42 0l5.35-1.149s-1.99-7.19-.73-7.787c0 0-7.15-4.872-1.76-8.161 5.4-3.289 11.21-1.903 11.21-1.903l13.55-4.744 2.6-.913s15.27.824 19.4 11.673c4.13 10.849-5.88 12.984-5.88 12.984z"/>
    <path fill="#000" d="M1048.59 350.61h-.75c4.44-3.787 14.49-15.317-15.37-23.72l2.6-.912s15.27.823 19.4 11.672c4.13 10.849-5.88 12.96-5.88 12.96z" opacity=".1"/>
    <path fill="#4B4B5B" d="M1020.52 337.828c.46 0 .83-.386.83-.863s-.37-.863-.83-.863c-.46 0-.84.386-.84.863s.38.863.84.863zM1015.67 339.253c.46 0 .83-.386.83-.863 0-.476-.37-.863-.83-.863-.47 0-.84.387-.84.863 0 .477.37.863.84.863z"/>
    <g opacity=".1">
      <path fill="#000" d="M992.025 156.023a39.394 39.394 0 00-2.739-15.85c-6.202.957-12.996-3.989-18.645-1.03-4.179 2.189-5.491 7.678-5.725 12.516a60.424 60.424 0 00-.043 3.831c0-.453 0-.912.043-1.366.219-4.837 1.531-10.326 5.725-12.516 5.649-2.958 12.434 1.973 18.645 1.031a39.233 39.233 0 012.739 13.384zM943.962 155.12a17.037 17.037 0 00-.062-3.225c-.506-4.339-2.801-8.487-3.216-12.718-.534 5.104 2.61 10.006 3.216 15.184.062.266.062.503.062.759zM969.1 199.375c-.296 3.659-1.13 7.569-3.817 9.995-2.686 2.427-7.633 2.294-9.127-1.03-.477-.986-.548-2.135-1.011-3.122-1.059-2.258-3.664-3.136-5.94-4.019-6.465-2.5-12.7-7.397-14.089-14.404a15.753 15.753 0 01-.253-1.924 16.07 16.07 0 00.253 4.389c1.389 6.988 7.634 11.905 14.089 14.405 2.276.883 4.881 1.76 5.94 4.019.477.986.558 2.125 1.011 3.122 1.503 3.323 6.46 3.451 9.127 1.03 2.667-2.421 3.498-6.337 3.817-9.996.146-1.926.195-3.858.148-5.789a42.55 42.55 0 01-.148 3.324zM1005.95 163.252v2.136c.27-9.173 3.52-18.395 3.2-27.375-.25 8.305-3.02 16.797-3.2 25.239zM995.713 200.356a6.602 6.602 0 00.11-1.78 10.066 10.066 0 00-1.274-3.605c-2.758-5.425-5.902-10.977-6.274-16.999 0 .257-.033.493-.038.77-.191 6.677 3.297 12.787 6.312 18.695.512.915.904 1.896 1.164 2.919zM1008.69 193.22c-.35 5.975-2 11.791-4.81 17.023-2.52 4.739-6.969 9.459-12.127 8.546a1.995 1.995 0 01-1.231-.577 1.222 1.222 0 01-.224-.384 15.88 15.88 0 00-.134 1.169c-.098.587.03 1.191.358 1.681a2 2 0 001.231.577c5.158.912 9.607-3.807 12.127-8.546a41.082 41.082 0 004.81-17.023c.06-1.154.07-2.303.03-3.452-.01.33-.01.656-.03.986z" opacity=".1"/>
    </g>
    <path stroke="#000" stroke-miterlimit="10" d="M1009.47 341.674s12.08 5.238 20.04-6.351M1011.85 350.827s9.86-6.628 22.42-.217M945.837 349.323s4.141-9.656 15.2-2.293" opacity=".1"/>
    <path fill="#000" d="M932.411 206.53l8.445-7.89s32.743-2.219 34.098 9.286c0 0 11.608-13.641 36.026-10.603l10.32 8.502-28.545 12.95-27.744 9.946-20.434-9.453-12.166-12.738z" opacity=".1"/>
    <path fill="#D5D6DB" d="M932.411 207.023l8.445-7.89s32.743-2.219 34.098 9.286c0 0 11.608-13.64 36.026-10.603l10.32 8.502-28.545 12.95-27.744 9.946-20.434-9.453-12.166-12.738z"/>
    <path fill="#000" d="M928.675 208.009l3.736 46.193 39.6 2.056-1.718-45.995-.033-.774-41.585-1.48z" opacity=".1"/>
    <path fill="#6C63FF" d="M928.675 207.023l3.736 46.192 39.6 2.057-1.718-45.995-.033-.774-41.585-1.48z"/>
    <path fill="#000" d="M1023.12 207.023l-40.852 6.332v46.399l39.922-5.962.93-46.769z" opacity=".1"/>
    <path fill="#6C63FF" d="M1023.12 206.037l-40.852 6.332v46.399l39.922-5.962.93-46.769z"/>
    <path fill="#fff" d="M1013.49 217.359l-22.071 2.535.482 7.772 21.569-2.436.02-7.871z" opacity=".3"/>
    <path fill="#BE6F72" d="M934.558 277.951l2.247 6.248s3.34 2.959 6.994 1.48c3.655-1.48 6.842-2.215 8.431-3.655 1.589-1.439 3.817-8.674 3.817-8.674s2.228-7.89 4.451-9.863c2.223-1.972 8.111-29.149 0-26.491-8.111 2.658-14.313 27.315-14.313 27.315s-1.431 1.805-3.497 1.973c-2.066.167-6.203-.331-6.999 1.479-.797 1.81-3.517 6.573-1.131 10.188z"/>
    <path fill="#000" d="M982.268 213.35a13.307 13.307 0 01-6.344-.074 13.594 13.594 0 01-5.636-3.013l1.723 45.99s4.055 4.537 10.257 3.501V213.35z" opacity=".1"/>
    <path fill="#6C63FF" d="M982.268 212.364a13.307 13.307 0 01-6.344-.075 13.592 13.592 0 01-5.636-3.012l1.723 45.99s4.055 4.537 10.257 3.501v-46.404z"/>
    <path fill="#000" d="M982.268 212.364a13.307 13.307 0 01-6.344-.075 13.592 13.592 0 01-5.636-3.012l1.723 45.99s4.055 4.537 10.257 3.501v-46.404zM983.222 207.181s16.618-5.252 20.948-4.512zM964.635 204.888s-16.107-3.945-18.798-2.826zM993.7 207.837s11.11-4.212 15.13-2.209zM988.103 313.482a36.36 36.36 0 015.477-3.516c2.863-1.425 8.11-5.124 8.11-5.124M945.837 263.157s-6.971 5.893-9.065 6.411c-2.095.518-3.388 5.114-3.388 5.114" opacity=".1"/>
    <path fill="#BE6F72" d="M1019.02 277.073l-2.22 6.263s-3.34 2.959-7 1.48c-3.66-1.48-6.84-2.214-8.43-3.654-1.597-1.44-3.82-8.675-3.82-8.675s-2.223-7.89-4.452-9.863c-2.228-1.972-8.11-29.149 0-26.491 8.112 2.658 14.312 27.315 14.312 27.315s1.43 1.805 3.5 1.973c2.06.167 6.2-.331 7 1.479.79 1.81 3.5 6.574 1.11 10.173z"/>
    <path fill="#000" d="M1015.12 265.554s4.56 3.028 4.54 6.647z" opacity=".1"/>
    <path fill="#BE6F72" d="M976.462 177.785c11.77 0 21.312-9.862 21.312-22.028 0-12.166-9.542-22.029-21.312-22.029-11.77 0-21.312 9.863-21.312 22.029s9.542 22.028 21.312 22.028z"/>
    <path fill="#3E373A" d="M963.079 149.844c2.586-.419 4.852-1.973 7.324-2.865 5.529-2.007 11.646-.632 17.242 1.178 2.147.696 4.328 1.48 6.579 1.48 2.252 0 4.643-.952 5.796-2.959 1.06-1.844.85-4.241-.042-6.179-.892-1.938-2.385-3.496-3.893-4.966-4.962-4.843-11.116-9.37-17.925-8.877-2.738.203-5.357 1.214-7.877 2.333a85.804 85.804 0 00-9.246 4.813c-2.295 1.376-6.546 3.215-7.867 5.73-3.006 5.666 5.234 11.071 9.909 10.312z"/>
    <path fill="#000" d="M1000.02 144.607c-1.153 2.007-3.544 2.959-5.796 2.959-2.251 0-4.432-.755-6.584-1.45-5.596-1.81-11.708-3.191-17.242-1.179-2.467.893-4.738 2.466-7.324 2.86-3.769.612-9.837-2.781-10.496-7.096-.739 4.986 6.298 9.256 10.496 8.576 2.586-.419 4.857-1.973 7.324-2.86 5.534-2.012 11.646-.632 17.242 1.178 2.152.695 4.328 1.48 6.584 1.45 2.257-.03 4.643-.947 5.796-2.959.59-1.094.83-2.36.66-3.605-.07.75-.3 1.474-.66 2.126z" opacity=".1"/>
    <path fill="#6C63FF" d="M1172.97 411.863s2.83 3.822-1.31 9.596c-4.13 5.775-7.54 10.647-6.17 14.247 0 0 6.25-10.721 11.32-10.874 5.08-.153 1.74-6.524-3.84-12.969z"/>
    <path fill="#000" d="M1172.97 411.863c.25.369.44.772.58 1.198 4.95 6.016 7.59 11.633 2.83 11.771-4.44.133-9.76 8.334-11.03 10.401.04.167.09.331.14.493 0 0 6.25-10.721 11.32-10.874 5.08-.153 1.74-6.544-3.84-12.989z" opacity=".1"/>
    <path fill="#FFD037" d="M1178.22 416.735c0 1.346-.15 2.436-.33 2.436-.17 0-.32-1.09-.32-2.436 0-1.346.18-.71.36-.71s.29-.636.29.71z"/>
    <path fill="#FFD037" d="M1180.03 418.343c-1.14.641-2.14 1.03-2.23.868-.08-.163.77-.819 1.91-1.48s.69-.177.78 0c.09.178.68-.034-.46.612z"/>
    <path fill="#6C63FF" d="M1158.02 411.863s-2.83 3.822 1.31 9.596c4.13 5.775 7.54 10.647 6.16 14.247 0 0-6.24-10.721-11.32-10.874-5.08-.153-1.71-6.524 3.85-12.969z"/>
    <path fill="#000" d="M1158.02 411.863c-.25.369-.44.772-.58 1.198-4.95 6.016-7.59 11.633-2.83 11.771 4.43.133 9.76 8.334 11.03 10.401-.04.167-.09.332-.15.493 0 0-6.24-10.721-11.32-10.874-5.08-.153-1.71-6.544 3.85-12.989z" opacity=".1"/>
    <path fill="#FFD037" d="M1152.76 416.735c0 1.346.14 2.436.33 2.436.18 0 .32-1.09.32-2.436 0-1.346-.18-.71-.36-.71-.17 0-.29-.636-.29.71z"/>
    <path fill="#FFD037" d="M1150.96 418.343c1.14.641 2.13 1.03 2.22.868.09-.163-.77-.819-1.91-1.48s-.69-.177-.78 0c-.08.178-.68-.034.47.612z"/>
    <path fill="#6C63FF" d="M1165.49 464.959c16.34 0 29.59-2.1 29.59-4.69 0-2.59-13.25-4.69-29.59-4.69-16.33 0-29.58 2.1-29.58 4.69 0 2.59 13.25 4.69 29.58 4.69z" opacity=".1"/>
    <path fill="#65617D" d="M1180.72 430.553l-.14 1.193-.2 1.687-.09.705-.2 1.686-.08.706-.2 1.681-2.26 19.183c-.2 1.711-2.91 3.048-6.18 3.048h-11.76c-3.27 0-5.97-1.337-6.17-3.048l-2.27-19.183-.2-1.681-.08-.706-.2-1.686-.09-.705-.19-1.687-.14-1.193c-.11-.987 1.35-1.785 3.2-1.785h24.05c1.85 0 3.31.813 3.2 1.785z"/>
    <path fill="#9D9CB5" d="M1180.58 431.746l-.2 1.687h-29.77l-.2-1.687h30.17zM1180.29 434.138l-.19 1.686h-29.21l-.2-1.686h29.6zM1180.01 436.53l-.2 1.686h-28.64l-.19-1.686h29.03z"/>
  </g>
  <path fill="#000" d="M223.41 215h-3.75v-28.438h3.75V215zm8.086 0v-18.34h-3.34v-2.793h3.34v-2.168c0-2.265.606-4.017 1.816-5.254 1.211-1.237 2.924-1.855 5.137-1.855.834 0 1.66.111 2.481.332l-.196 2.93a10.31 10.31 0 00-1.953-.176c-1.172 0-2.077.345-2.715 1.035-.638.677-.957 1.654-.957 2.93v2.226h4.512v2.793h-4.512V215h-3.613zm28.965-5.293l4.922-15.84h3.867l-8.496 24.395c-1.315 3.515-3.405 5.273-6.27 5.273l-.683-.058-1.348-.254v-2.93l.977.078c1.224 0 2.174-.247 2.851-.742.69-.495 1.257-1.4 1.699-2.715l.801-2.148-7.539-20.899h3.946l5.273 15.84zm10.762-5.469c0-2.07.403-3.932 1.211-5.586.82-1.653 1.953-2.929 3.398-3.828 1.458-.898 3.119-1.347 4.98-1.347 2.878 0 5.202.996 6.973 2.988 1.784 1.992 2.676 4.642 2.676 7.949v.254c0 2.057-.397 3.906-1.191 5.547-.782 1.627-1.908 2.897-3.379 3.808-1.459.912-3.138 1.368-5.039 1.368-2.865 0-5.189-.996-6.973-2.989-1.771-1.992-2.656-4.629-2.656-7.91v-.254zm3.632.43c0 2.344.541 4.225 1.622 5.644 1.093 1.42 2.552 2.129 4.375 2.129 1.836 0 3.294-.716 4.375-2.148 1.08-1.445 1.621-3.464 1.621-6.055 0-2.317-.554-4.192-1.66-5.625-1.094-1.445-2.553-2.168-4.376-2.168-1.783 0-3.222.71-4.316 2.129-1.094 1.419-1.641 3.451-1.641 6.094zm33.184 8.242c-1.406 1.654-3.47 2.481-6.191 2.481-2.253 0-3.972-.651-5.157-1.953-1.171-1.316-1.764-3.256-1.777-5.821v-13.75h3.613v13.653c0 3.203 1.302 4.804 3.907 4.804 2.76 0 4.596-1.028 5.507-3.086v-15.371h3.614V215h-3.438l-.078-2.09zm37.656-2.89l4.063-16.153h3.613L347.219 215h-2.93l-5.137-16.016-5 16.016h-2.929l-6.133-21.133h3.594l4.16 15.821 4.922-15.821h2.91l5.019 16.153zm24.414 4.98c-.208-.417-.377-1.159-.507-2.227-1.68 1.745-3.685 2.618-6.016 2.618-2.083 0-3.796-.586-5.137-1.758-1.328-1.185-1.992-2.682-1.992-4.492 0-2.201.833-3.907 2.5-5.118 1.68-1.224 4.036-1.835 7.07-1.835h3.516v-1.661c0-1.263-.378-2.265-1.133-3.007-.755-.756-1.868-1.133-3.34-1.133-1.289 0-2.369.325-3.242.976-.872.651-1.308 1.439-1.308 2.364h-3.633c0-1.055.371-2.071 1.113-3.047.755-.99 1.771-1.771 3.047-2.344 1.289-.573 2.702-.859 4.238-.859 2.435 0 4.343.612 5.723 1.835 1.38 1.211 2.096 2.885 2.148 5.02v9.727c0 1.94.248 3.483.742 4.629V215h-3.789zm-5.996-2.754a6.352 6.352 0 003.223-.879c1.016-.586 1.751-1.347 2.207-2.285v-4.336h-2.832c-4.427 0-6.641 1.296-6.641 3.887 0 1.133.378 2.018 1.133 2.656.755.638 1.725.957 2.91.957zm18.125-18.379l.117 2.656c1.615-2.031 3.724-3.046 6.329-3.046 4.466 0 6.718 2.519 6.757 7.558V215h-3.613v-13.984c-.013-1.524-.364-2.65-1.055-3.379-.677-.729-1.738-1.094-3.183-1.094-1.172 0-2.201.312-3.086.937a6.358 6.358 0 00-2.07 2.461V215h-3.614v-21.133h3.418zm23.555-5.117v5.117h3.945v2.793h-3.945v13.106c0 .846.176 1.484.527 1.914.352.416.951.625 1.797.625.417 0 .99-.078 1.719-.235V215c-.951.26-1.875.391-2.774.391-1.614 0-2.832-.489-3.652-1.465-.82-.977-1.23-2.364-1.23-4.16V196.66h-3.848v-2.793h3.848v-5.117h3.613zm23.008 0v5.117h3.945v2.793h-3.945v13.106c0 .846.176 1.484.527 1.914.352.416.951.625 1.797.625.417 0 .99-.078 1.719-.235V215c-.951.26-1.875.391-2.774.391-1.614 0-2.832-.489-3.652-1.465-.82-.977-1.23-2.364-1.23-4.16V196.66h-3.848v-2.793h3.848v-5.117h3.613zm6.836 15.488c0-2.07.403-3.932 1.211-5.586.82-1.653 1.953-2.929 3.398-3.828 1.458-.898 3.119-1.347 4.981-1.347 2.877 0 5.201.996 6.972 2.988 1.784 1.992 2.676 4.642 2.676 7.949v.254c0 2.057-.397 3.906-1.191 5.547-.782 1.627-1.908 2.897-3.379 3.808-1.459.912-3.138 1.368-5.039 1.368-2.865 0-5.189-.996-6.973-2.989-1.771-1.992-2.656-4.629-2.656-7.91v-.254zm3.633.43c0 2.344.54 4.225 1.621 5.644 1.093 1.42 2.552 2.129 4.375 2.129 1.836 0 3.294-.716 4.375-2.148 1.08-1.445 1.621-3.464 1.621-6.055 0-2.317-.554-4.192-1.66-5.625-1.094-1.445-2.553-2.168-4.375-2.168-1.784 0-3.223.71-4.317 2.129-1.094 1.419-1.64 3.451-1.64 6.094zM473.254 215h-3.613v-30h3.613v30zm14.57.391c-2.864 0-5.195-.938-6.992-2.813-1.797-1.888-2.695-4.407-2.695-7.558v-.665c0-2.096.397-3.964 1.191-5.605.807-1.654 1.927-2.943 3.36-3.867 1.445-.938 3.007-1.406 4.687-1.406 2.747 0 4.883.905 6.406 2.714 1.524 1.81 2.285 4.401 2.285 7.774v1.504H481.75c.052 2.083.658 3.769 1.816 5.058 1.172 1.276 2.657 1.914 4.454 1.914 1.276 0 2.356-.26 3.242-.781a8.157 8.157 0 002.324-2.07l2.207 1.719c-1.771 2.721-4.427 4.082-7.969 4.082zm-.449-18.946c-1.458 0-2.682.534-3.672 1.602-.989 1.055-1.601 2.539-1.836 4.453h10.586v-.273c-.104-1.836-.599-3.256-1.484-4.258-.886-1.016-2.084-1.524-3.594-1.524zM513.312 215c-.208-.417-.377-1.159-.507-2.227-1.68 1.745-3.685 2.618-6.016 2.618-2.083 0-3.796-.586-5.137-1.758-1.328-1.185-1.992-2.682-1.992-4.492 0-2.201.833-3.907 2.5-5.118 1.68-1.224 4.037-1.835 7.07-1.835h3.516v-1.661c0-1.263-.378-2.265-1.133-3.007-.755-.756-1.868-1.133-3.34-1.133-1.289 0-2.369.325-3.242.976-.872.651-1.308 1.439-1.308 2.364h-3.633c0-1.055.371-2.071 1.113-3.047.755-.99 1.771-1.771 3.047-2.344 1.289-.573 2.702-.859 4.238-.859 2.435 0 4.343.612 5.723 1.835 1.38 1.211 2.096 2.885 2.148 5.02v9.727c0 1.94.248 3.483.743 4.629V215h-3.79zm-5.996-2.754a6.352 6.352 0 003.223-.879c1.016-.586 1.751-1.347 2.207-2.285v-4.336h-2.832c-4.427 0-6.641 1.296-6.641 3.887 0 1.133.378 2.018 1.133 2.656.755.638 1.726.957 2.91.957zm24.922-15.137a10.844 10.844 0 00-1.777-.136c-2.37 0-3.978 1.009-4.824 3.027v15h-3.614v-21.133h3.516l.059 2.442c1.185-1.888 2.864-2.832 5.039-2.832.703 0 1.237.091 1.601.273v3.359zm6.758-3.242l.117 2.656c1.615-2.031 3.724-3.046 6.328-3.046 4.467 0 6.719 2.519 6.758 7.558V215h-3.613v-13.984c-.013-1.524-.365-2.65-1.055-3.379-.677-.729-1.738-1.094-3.183-1.094-1.172 0-2.201.312-3.086.937a6.37 6.37 0 00-2.071 2.461V215h-3.613v-21.133h3.418zm-277.363 62.528c0-.977-.371-1.732-1.113-2.266-.73-.547-2.012-1.016-3.848-1.406-1.823-.391-3.275-.86-4.356-1.407-1.067-.546-1.862-1.198-2.382-1.953-.508-.755-.762-1.653-.762-2.695 0-1.732.729-3.197 2.187-4.395 1.472-1.197 3.347-1.796 5.625-1.796 2.396 0 4.336.618 5.821 1.855 1.497 1.237 2.246 2.819 2.246 4.746h-3.633c0-.989-.423-1.842-1.27-2.558-.833-.717-1.888-1.075-3.164-1.075-1.315 0-2.343.287-3.086.86-.742.573-1.113 1.321-1.113 2.246 0 .872.345 1.53 1.035 1.972.69.443 1.934.866 3.731 1.27 1.81.404 3.275.885 4.394 1.445 1.12.56 1.947 1.237 2.481 2.032.547.781.82 1.738.82 2.871 0 1.888-.755 3.405-2.266 4.55-1.51 1.133-3.47 1.7-5.878 1.7-1.693 0-3.191-.3-4.493-.899-1.302-.599-2.324-1.432-3.066-2.5-.729-1.081-1.094-2.246-1.094-3.496h3.613c.066 1.211.547 2.175 1.446 2.891.911.703 2.109 1.054 3.594 1.054 1.367 0 2.46-.273 3.281-.82.833-.56 1.25-1.302 1.25-2.226zm7.363-5.157c0-2.07.404-3.932 1.211-5.586.82-1.653 1.953-2.929 3.398-3.828 1.459-.898 3.119-1.347 4.981-1.347 2.878 0 5.202.996 6.973 2.988 1.783 1.992 2.675 4.642 2.675 7.949v.254c0 2.057-.397 3.906-1.191 5.547-.781 1.627-1.908 2.897-3.379 3.808-1.458.912-3.138 1.368-5.039 1.368-2.865 0-5.189-.996-6.973-2.989-1.77-1.992-2.656-4.629-2.656-7.91v-.254zm3.633.43c0 2.344.54 4.225 1.621 5.644 1.094 1.42 2.552 2.129 4.375 2.129 1.836 0 3.294-.716 4.375-2.148 1.081-1.445 1.621-3.464 1.621-6.055 0-2.317-.553-4.192-1.66-5.625-1.094-1.445-2.552-2.168-4.375-2.168-1.784 0-3.223.71-4.316 2.129-1.094 1.419-1.641 3.451-1.641 6.094zm23.535-10.801l.098 2.344c1.549-1.823 3.639-2.734 6.269-2.734 2.956 0 4.968 1.132 6.035 3.398a8.037 8.037 0 012.735-2.461c1.133-.625 2.467-.937 4.004-.937 4.635 0 6.992 2.454 7.07 7.363V262h-3.613v-13.945c0-1.511-.345-2.637-1.035-3.379-.691-.755-1.849-1.133-3.477-1.133-1.341 0-2.454.404-3.34 1.211-.885.794-1.4 1.868-1.543 3.223V262h-3.633v-13.848c0-3.073-1.504-4.609-4.511-4.609-2.37 0-3.991 1.009-4.864 3.027V262h-3.613v-21.133h3.418zm40.449 21.524c-2.864 0-5.195-.938-6.992-2.813-1.797-1.888-2.695-4.407-2.695-7.558v-.665c0-2.096.397-3.964 1.191-5.605.807-1.654 1.927-2.943 3.36-3.867 1.445-.938 3.007-1.406 4.687-1.406 2.747 0 4.883.905 6.406 2.714 1.524 1.81 2.285 4.401 2.285 7.774v1.504h-14.316c.052 2.083.658 3.769 1.816 5.058 1.172 1.276 2.657 1.914 4.454 1.914 1.276 0 2.356-.26 3.242-.781a8.157 8.157 0 002.324-2.07l2.207 1.719c-1.771 2.721-4.427 4.082-7.969 4.082zm-.449-18.946c-1.458 0-2.682.534-3.672 1.602-.989 1.055-1.601 2.539-1.836 4.453h10.586v-.273c-.104-1.836-.599-3.256-1.484-4.258-.886-1.016-2.084-1.524-3.594-1.524zm17.793-7.695v5.117h3.945v2.793h-3.945v13.106c0 .846.176 1.484.527 1.914.352.416.951.625 1.797.625.417 0 .99-.078 1.719-.235V262c-.951.26-1.875.391-2.773.391-1.615 0-2.832-.489-3.653-1.465-.82-.977-1.23-2.364-1.23-4.16V243.66h-3.848v-2.793h3.848v-5.117h3.613zm11.797 7.676c1.601-1.966 3.685-2.949 6.25-2.949 4.466 0 6.719 2.519 6.758 7.558V262h-3.614v-13.984c-.013-1.524-.364-2.65-1.054-3.379-.677-.729-1.739-1.094-3.184-1.094-1.172 0-2.2.312-3.086.937a6.376 6.376 0 00-2.07 2.461V262h-3.613v-30h3.613v11.426zM388.098 262h-3.614v-21.133h3.614V262zm-3.907-26.738c0-.586.176-1.081.528-1.485.364-.403.898-.605 1.601-.605s1.237.202 1.602.605c.364.404.547.899.547 1.485 0 .586-.183 1.074-.547 1.465-.365.39-.899.585-1.602.585-.703 0-1.237-.195-1.601-.585-.352-.391-.528-.879-.528-1.465zm13.125 5.605l.118 2.656c1.614-2.031 3.724-3.046 6.328-3.046 4.466 0 6.718 2.519 6.758 7.558V262h-3.614v-13.984c-.013-1.524-.364-2.65-1.054-3.379-.678-.729-1.739-1.094-3.184-1.094-1.172 0-2.201.312-3.086.937a6.376 6.376 0 00-2.07 2.461V262h-3.614v-21.133h3.418zm17.793 10.391c0-3.294.762-5.912 2.286-7.852 1.523-1.953 3.541-2.929 6.054-2.929 2.578 0 4.59.911 6.035 2.734l.176-2.344h3.301v20.625c0 2.735-.814 4.89-2.441 6.465-1.615 1.576-3.79 2.363-6.524 2.363-1.523 0-3.014-.325-4.473-.976-1.458-.651-2.571-1.543-3.339-2.676l1.875-2.168c1.549 1.914 3.444 2.871 5.683 2.871 1.758 0 3.125-.495 4.102-1.484.989-.99 1.484-2.383 1.484-4.18v-1.816c-1.445 1.666-3.418 2.5-5.918 2.5-2.474 0-4.479-.996-6.015-2.989-1.524-1.992-2.286-4.707-2.286-8.144zm3.633.41c0 2.383.488 4.258 1.465 5.625.977 1.354 2.344 2.031 4.102 2.031 2.278 0 3.951-1.035 5.019-3.105v-9.649c-1.107-2.018-2.767-3.027-4.98-3.027-1.758 0-3.132.684-4.121 2.051-.99 1.367-1.485 3.392-1.485 6.074zm33.028-10.801l.117 2.656c1.614-2.031 3.724-3.046 6.328-3.046 4.466 0 6.719 2.519 6.758 7.558V262h-3.614v-13.984c-.013-1.524-.364-2.65-1.054-3.379-.677-.729-1.739-1.094-3.184-1.094-1.172 0-2.2.312-3.086.937a6.376 6.376 0 00-2.07 2.461V262h-3.613v-21.133h3.418zm27.421 21.524c-2.864 0-5.195-.938-6.992-2.813-1.797-1.888-2.695-4.407-2.695-7.558v-.665c0-2.096.397-3.964 1.191-5.605.808-1.654 1.927-2.943 3.36-3.867 1.445-.938 3.007-1.406 4.687-1.406 2.748 0 4.883.905 6.406 2.714 1.524 1.81 2.286 4.401 2.286 7.774v1.504h-14.317c.052 2.083.658 3.769 1.817 5.058 1.171 1.276 2.656 1.914 4.453 1.914 1.276 0 2.356-.26 3.242-.781a8.157 8.157 0 002.324-2.07l2.207 1.719c-1.771 2.721-4.427 4.082-7.969 4.082zm-.449-18.946c-1.458 0-2.682.534-3.672 1.602-.989 1.055-1.601 2.539-1.836 4.453h10.586v-.273c-.104-1.836-.599-3.256-1.484-4.258-.885-1.016-2.083-1.524-3.594-1.524zm31.602 13.575l4.062-16.153h3.614L511.867 262h-2.929l-5.137-16.016-5 16.016h-2.93l-6.133-21.133h3.594l4.16 15.821 4.922-15.821h2.91l5.02 16.153zm8.828 10.644l-2.051-1.406c1.224-1.706 1.862-3.464 1.914-5.274v-3.261h3.535v2.832c0 1.315-.325 2.63-.976 3.945-.638 1.315-1.446 2.37-2.422 3.164zm-318.418 83.629h12.441V356h-18.3v-28.438h5.859v23.731zm25.176 5.098c-3.099 0-5.625-.951-7.578-2.852-1.941-1.901-2.911-4.434-2.911-7.598v-.546c0-2.123.411-4.017 1.231-5.684.82-1.68 1.979-2.969 3.476-3.867 1.511-.912 3.23-1.367 5.157-1.367 2.89 0 5.162.911 6.816 2.734 1.667 1.823 2.5 4.407 2.5 7.754v2.305h-13.457c.182 1.38.729 2.487 1.641 3.32.924.833 2.09 1.25 3.496 1.25 2.174 0 3.873-.788 5.097-2.363l2.774 3.105c-.846 1.198-1.992 2.135-3.438 2.813-1.445.664-3.046.996-4.804.996zm-.645-17.344c-1.12 0-2.031.377-2.734 1.133-.69.755-1.133 1.836-1.328 3.242h7.851v-.449c-.026-1.25-.364-2.214-1.015-2.891-.651-.69-1.576-1.035-2.774-1.035zM250.09 356c-.261-.508-.449-1.139-.567-1.895-1.367 1.524-3.144 2.286-5.332 2.286-2.07 0-3.789-.599-5.156-1.797-1.354-1.198-2.031-2.709-2.031-4.532 0-2.239.827-3.958 2.48-5.156 1.667-1.198 4.069-1.803 7.207-1.816h2.598v-1.211c0-.977-.254-1.758-.762-2.344-.494-.586-1.282-.879-2.363-.879-.95 0-1.699.228-2.246.684-.534.456-.801 1.081-.801 1.875h-5.644c0-1.224.377-2.357 1.132-3.399.756-1.041 1.823-1.855 3.204-2.441 1.38-.599 2.929-.898 4.648-.898 2.604 0 4.668.657 6.191 1.972 1.537 1.302 2.305 3.138 2.305 5.508v9.16c.013 2.005.293 3.522.84 4.551V356h-5.703zm-4.668-3.926c.833 0 1.601-.182 2.305-.547.703-.377 1.224-.879 1.562-1.504v-3.632h-2.109c-2.826 0-4.33.976-4.512 2.929l-.02.332c0 .703.248 1.283.743 1.739.494.455 1.171.683 2.031.683zm25.742-11.914a15.352 15.352 0 00-2.031-.156c-2.136 0-3.535.723-4.199 2.168V356h-5.645v-21.133h5.332l.156 2.52c1.133-1.94 2.702-2.91 4.707-2.91.625 0 1.211.084 1.758.253l-.078 5.43zm7.93-5.293l.176 2.442c1.51-1.888 3.535-2.832 6.074-2.832 2.239 0 3.906.657 5 1.972 1.094 1.315 1.653 3.281 1.679 5.899V356h-5.644v-13.516c0-1.198-.261-2.063-.781-2.597-.521-.547-1.387-.821-2.598-.821-1.589 0-2.78.677-3.574 2.032V356h-5.645v-21.133h5.313zM308.566 356c-.26-.508-.449-1.139-.566-1.895-1.367 1.524-3.145 2.286-5.332 2.286-2.07 0-3.789-.599-5.156-1.797-1.354-1.198-2.032-2.709-2.032-4.532 0-2.239.827-3.958 2.481-5.156 1.667-1.198 4.069-1.803 7.207-1.816h2.598v-1.211c0-.977-.254-1.758-.762-2.344-.495-.586-1.283-.879-2.363-.879-.951 0-1.7.228-2.246.684-.534.456-.801 1.081-.801 1.875h-5.645c0-1.224.378-2.357 1.133-3.399.755-1.041 1.823-1.855 3.203-2.441 1.38-.599 2.93-.898 4.649-.898 2.604 0 4.668.657 6.191 1.972 1.536 1.302 2.305 3.138 2.305 5.508v9.16c.013 2.005.293 3.522.84 4.551V356h-5.704zm-4.668-3.926c.834 0 1.602-.182 2.305-.547.703-.377 1.224-.879 1.563-1.504v-3.632h-2.11c-2.825 0-4.329.976-4.511 2.929l-.02.332c0 .703.247 1.283.742 1.739.495.455 1.172.683 2.031.683zm20.625-22.402v5.195h3.614v4.141h-3.614v10.547c0 .781.15 1.341.45 1.679.299.339.872.508 1.718.508.625 0 1.179-.045 1.661-.137v4.278a11.644 11.644 0 01-3.418.508c-3.959 0-5.977-1.999-6.055-5.996v-11.387h-3.086v-4.141h3.086v-5.195h5.644zM337.238 356h-5.664v-21.133h5.664V356zm-5.996-26.602c0-.846.28-1.543.84-2.089.573-.547 1.348-.821 2.324-.821.964 0 1.732.274 2.305.821.573.546.859 1.243.859 2.089 0 .86-.293 1.563-.879 2.11-.573.547-1.334.82-2.285.82-.95 0-1.718-.273-2.304-.82-.573-.547-.86-1.25-.86-2.11zm18.574 19.707l3.926-14.238h5.899L352.512 356h-5.391l-7.129-21.133h5.899l3.925 14.238zm21.778 7.286c-3.099 0-5.625-.951-7.578-2.852-1.94-1.901-2.911-4.434-2.911-7.598v-.546c0-2.123.411-4.017 1.231-5.684.82-1.68 1.979-2.969 3.476-3.867 1.511-.912 3.23-1.367 5.157-1.367 2.89 0 5.163.911 6.816 2.734 1.667 1.823 2.5 4.407 2.5 7.754v2.305h-13.457c.182 1.38.729 2.487 1.641 3.32.924.833 2.09 1.25 3.496 1.25 2.174 0 3.874-.788 5.097-2.363l2.774 3.105c-.846 1.198-1.992 2.135-3.438 2.813-1.445.664-3.046.996-4.804.996zm-.645-17.344c-1.12 0-2.031.377-2.734 1.133-.69.755-1.133 1.836-1.328 3.242h7.851v-.449c-.026-1.25-.364-2.214-1.015-2.891-.651-.69-1.576-1.035-2.774-1.035zM397.922 356h-3.613v-21.133h3.613V356zm-3.906-26.738c0-.586.175-1.081.527-1.485.365-.403.898-.605 1.602-.605.703 0 1.237.202 1.601.605.365.404.547.899.547 1.485 0 .586-.182 1.074-.547 1.465-.364.39-.898.585-1.601.585-.704 0-1.237-.195-1.602-.585-.352-.391-.527-.879-.527-1.465zm22.011 21.133c0-.977-.371-1.732-1.113-2.266-.729-.547-2.012-1.016-3.848-1.406-1.823-.391-3.274-.86-4.355-1.407-1.068-.546-1.862-1.198-2.383-1.953-.508-.755-.762-1.653-.762-2.695 0-1.732.73-3.197 2.188-4.395 1.471-1.197 3.346-1.796 5.625-1.796 2.396 0 4.336.618 5.82 1.855 1.498 1.237 2.246 2.819 2.246 4.746h-3.633c0-.989-.423-1.842-1.269-2.558-.833-.717-1.888-1.075-3.164-1.075-1.315 0-2.344.287-3.086.86s-1.113 1.321-1.113 2.246c0 .872.345 1.53 1.035 1.972.69.443 1.933.866 3.73 1.27 1.81.404 3.275.885 4.395 1.445 1.12.56 1.946 1.237 2.48 2.032.547.781.821 1.738.821 2.871 0 1.888-.756 3.405-2.266 4.55-1.51 1.133-3.47 1.7-5.879 1.7-1.693 0-3.19-.3-4.492-.899s-2.324-1.432-3.066-2.5c-.73-1.081-1.094-2.246-1.094-3.496h3.613c.065 1.211.547 2.175 1.445 2.891.912.703 2.11 1.054 3.594 1.054 1.367 0 2.461-.273 3.281-.82.834-.56 1.25-1.302 1.25-2.226zm23.145-20.645v5.117h3.945v2.793h-3.945v13.106c0 .846.176 1.484.527 1.914.352.416.951.625 1.797.625.417 0 .99-.078 1.719-.235V356c-.951.26-1.875.391-2.774.391-1.614 0-2.832-.489-3.652-1.465-.82-.977-1.23-2.364-1.23-4.16V337.66h-3.848v-2.793h3.848v-5.117h3.613zm11.797 7.676c1.601-1.966 3.685-2.949 6.25-2.949 4.466 0 6.719 2.519 6.758 7.558V356h-3.614v-13.984c-.013-1.524-.364-2.65-1.054-3.379-.677-.729-1.739-1.094-3.184-1.094-1.172 0-2.201.312-3.086.937a6.376 6.376 0 00-2.07 2.461V356h-3.614v-30h3.614v11.426zm27.187 18.965c-2.864 0-5.195-.938-6.992-2.813-1.797-1.888-2.695-4.407-2.695-7.558v-.665c0-2.096.397-3.964 1.191-5.605.807-1.654 1.927-2.943 3.36-3.867 1.445-.938 3.007-1.406 4.687-1.406 2.747 0 4.883.905 6.406 2.714 1.524 1.81 2.285 4.401 2.285 7.774v1.504h-14.316c.052 2.083.658 3.769 1.816 5.058 1.172 1.276 2.657 1.914 4.454 1.914 1.276 0 2.356-.26 3.242-.781a8.157 8.157 0 002.324-2.07l2.207 1.719c-1.771 2.721-4.427 4.082-7.969 4.082zm-.449-18.946c-1.458 0-2.682.534-3.672 1.602-.989 1.055-1.601 2.539-1.836 4.453h10.586v-.273c-.104-1.836-.599-3.256-1.484-4.258-.886-1.016-2.084-1.524-3.594-1.524zm33.027.664a10.835 10.835 0 00-1.777-.136c-2.37 0-3.978 1.009-4.824 3.027v15h-3.613v-21.133h3.515l.059 2.442c1.185-1.888 2.864-2.832 5.039-2.832.703 0 1.237.091 1.601.273v3.359zM518 356h-3.613v-21.133H518V356zm-3.906-26.738c0-.586.176-1.081.527-1.485.365-.403.899-.605 1.602-.605.703 0 1.237.202 1.601.605.365.404.547.899.547 1.485 0 .586-.182 1.074-.547 1.465-.364.39-.898.585-1.601.585s-1.237-.195-1.602-.585c-.351-.391-.527-.879-.527-1.465zm8.847 15.996c0-3.294.762-5.912 2.286-7.852 1.523-1.953 3.541-2.929 6.054-2.929 2.578 0 4.59.911 6.035 2.734l.176-2.344h3.301v20.625c0 2.735-.814 4.89-2.441 6.465-1.615 1.576-3.79 2.363-6.524 2.363-1.523 0-3.014-.325-4.473-.976-1.458-.651-2.571-1.543-3.339-2.676l1.875-2.168c1.549 1.914 3.444 2.871 5.683 2.871 1.758 0 3.125-.495 4.102-1.484.989-.99 1.484-2.383 1.484-4.18v-1.816c-1.445 1.666-3.418 2.5-5.918 2.5-2.474 0-4.479-.996-6.015-2.989-1.524-1.992-2.286-4.707-2.286-8.144zm3.633.41c0 2.383.488 4.258 1.465 5.625.977 1.354 2.344 2.031 4.102 2.031 2.278 0 3.951-1.035 5.019-3.105v-9.649c-1.107-2.018-2.767-3.027-4.98-3.027-1.758 0-3.132.684-4.121 2.051-.99 1.367-1.485 3.392-1.485 6.074zm23.301-8.242c1.602-1.966 3.685-2.949 6.25-2.949 4.466 0 6.719 2.519 6.758 7.558V356h-3.613v-13.984c-.013-1.524-.365-2.65-1.055-3.379-.677-.729-1.738-1.094-3.184-1.094-1.172 0-2.2.312-3.086.937a6.376 6.376 0 00-2.07 2.461V356h-3.613v-30h3.613v11.426zm23.32-7.676v5.117h3.946v2.793h-3.946v13.106c0 .846.176 1.484.528 1.914.351.416.95.625 1.797.625.416 0 .989-.078 1.718-.235V356c-.95.26-1.875.391-2.773.391-1.615 0-2.832-.489-3.653-1.465-.82-.977-1.23-2.364-1.23-4.16V337.66h-3.848v-2.793h3.848v-5.117h3.613zm-325.937 62.918c0 3.216-.736 5.807-2.207 7.773-1.472 1.967-3.464 2.95-5.977 2.95-2.565 0-4.583-.814-6.054-2.442v10.176h-3.614v-29.258h3.301l.176 2.344c1.471-1.823 3.515-2.734 6.133-2.734 2.539 0 4.544.957 6.015 2.871 1.485 1.914 2.227 4.576 2.227 7.988v.332zm-3.613-.41c0-2.383-.508-4.265-1.524-5.645s-2.409-2.07-4.18-2.07c-2.187 0-3.828.97-4.921 2.91v10.098c1.08 1.927 2.734 2.89 4.96 2.89 1.732 0 3.106-.683 4.122-2.05 1.028-1.381 1.543-3.425 1.543-6.133zM255.793 403h-3.613v-30h3.613v30zm18.848 0c-.209-.417-.378-1.159-.508-2.227-1.68 1.745-3.685 2.618-6.016 2.618-2.083 0-3.795-.586-5.137-1.758-1.328-1.185-1.992-2.682-1.992-4.492 0-2.201.834-3.907 2.5-5.118 1.68-1.224 4.037-1.835 7.071-1.835h3.515v-1.661c0-1.263-.377-2.265-1.133-3.007-.755-.756-1.868-1.133-3.339-1.133-1.29 0-2.37.325-3.243.976-.872.651-1.308 1.439-1.308 2.364h-3.633c0-1.055.371-2.071 1.113-3.047.755-.99 1.771-1.771 3.047-2.344 1.289-.573 2.702-.859 4.238-.859 2.435 0 4.343.612 5.723 1.835 1.38 1.211 2.096 2.885 2.149 5.02v9.727c0 1.94.247 3.483.742 4.629V403h-3.789zm-5.996-2.754a6.348 6.348 0 003.222-.879c1.016-.586 1.751-1.347 2.207-2.285v-4.336h-2.832c-4.427 0-6.64 1.296-6.64 3.887 0 1.133.377 2.018 1.132 2.656.756.638 1.726.957 2.911.957zm19.609-23.496v5.117h3.945v2.793h-3.945v13.106c0 .846.176 1.484.527 1.914.352.416.951.625 1.797.625.417 0 .99-.078 1.719-.235V403c-.951.26-1.875.391-2.774.391-1.614 0-2.832-.489-3.652-1.465-.82-.977-1.23-2.364-1.23-4.16V384.66h-3.848v-2.793h3.848v-5.117h3.613zm9.961 26.25v-18.34h-3.34v-2.793h3.34v-2.168c0-2.265.605-4.017 1.816-5.254 1.211-1.237 2.923-1.855 5.137-1.855.833 0 1.66.111 2.48.332l-.195 2.93a10.31 10.31 0 00-1.953-.176c-1.172 0-2.077.345-2.715 1.035-.638.677-.957 1.654-.957 2.93v2.226h4.512v2.793h-4.512V403h-3.613zm11.172-10.762c0-2.07.403-3.932 1.211-5.586.82-1.653 1.953-2.929 3.398-3.828 1.458-.898 3.119-1.347 4.981-1.347 2.877 0 5.201.996 6.972 2.988 1.784 1.992 2.676 4.642 2.676 7.949v.254c0 2.057-.397 3.906-1.191 5.547-.782 1.627-1.908 2.897-3.379 3.808-1.459.912-3.138 1.368-5.039 1.368-2.865 0-5.189-.996-6.973-2.989-1.771-1.992-2.656-4.629-2.656-7.91v-.254zm3.633.43c0 2.344.54 4.225 1.621 5.644 1.093 1.42 2.552 2.129 4.375 2.129 1.836 0 3.294-.716 4.375-2.148 1.08-1.445 1.621-3.464 1.621-6.055 0-2.317-.554-4.192-1.66-5.625-1.094-1.445-2.553-2.168-4.375-2.168-1.784 0-3.223.71-4.317 2.129-1.094 1.419-1.64 3.451-1.64 6.094zm30.351-7.559a10.844 10.844 0 00-1.777-.136c-2.37 0-3.978 1.009-4.824 3.027v15h-3.614v-21.133h3.516l.058 2.442c1.185-1.888 2.865-2.832 5.04-2.832.703 0 1.237.091 1.601.273v3.359zm6.738-3.242l.098 2.344c1.55-1.823 3.639-2.734 6.27-2.734 2.955 0 4.967 1.132 6.035 3.398a8.025 8.025 0 012.734-2.461c1.133-.625 2.468-.937 4.004-.937 4.635 0 6.992 2.454 7.07 7.363V403h-3.613v-13.945c0-1.511-.345-2.637-1.035-3.379-.69-.755-1.849-1.133-3.477-1.133-1.341 0-2.454.404-3.34 1.211-.885.794-1.399 1.868-1.543 3.223V403h-3.632v-13.848c0-3.073-1.504-4.609-4.512-4.609-2.37 0-3.991 1.009-4.863 3.027V403h-3.614v-21.133h3.418zM393.488 403v-18.34h-3.34v-2.793h3.34v-2.168c0-2.265.606-4.017 1.817-5.254 1.211-1.237 2.923-1.855 5.136-1.855.834 0 1.661.111 2.481.332l-.195 2.93a10.313 10.313 0 00-1.954-.176c-1.171 0-2.076.345-2.714 1.035-.638.677-.957 1.654-.957 2.93v2.226h4.511v2.793h-4.511V403h-3.614zm11.172-10.762c0-2.07.404-3.932 1.211-5.586.82-1.653 1.953-2.929 3.399-3.828 1.458-.898 3.118-1.347 4.98-1.347 2.878 0 5.202.996 6.973 2.988 1.784 1.992 2.675 4.642 2.675 7.949v.254c0 2.057-.397 3.906-1.191 5.547-.781 1.627-1.908 2.897-3.379 3.808-1.458.912-3.138 1.368-5.039 1.368-2.865 0-5.189-.996-6.973-2.989-1.77-1.992-2.656-4.629-2.656-7.91v-.254zm3.633.43c0 2.344.54 4.225 1.621 5.644 1.094 1.42 2.552 2.129 4.375 2.129 1.836 0 3.294-.716 4.375-2.148 1.081-1.445 1.621-3.464 1.621-6.055 0-2.317-.553-4.192-1.66-5.625-1.094-1.445-2.552-2.168-4.375-2.168-1.784 0-3.223.71-4.316 2.129-1.094 1.419-1.641 3.451-1.641 6.094zm30.352-7.559a10.856 10.856 0 00-1.778-.136c-2.37 0-3.978 1.009-4.824 3.027v15h-3.613v-21.133h3.515l.059 2.442c1.185-1.888 2.864-2.832 5.039-2.832.703 0 1.237.091 1.602.273v3.359zm20.175 12.598l4.922-15.84h3.867l-8.496 24.395c-1.315 3.515-3.405 5.273-6.269 5.273l-.684-.058-1.348-.254v-2.93l.977.078c1.224 0 2.175-.247 2.852-.742.69-.495 1.256-1.4 1.699-2.715l.801-2.148-7.539-20.899h3.945l5.273 15.84zm10.762-5.469c0-2.07.404-3.932 1.211-5.586.82-1.653 1.953-2.929 3.398-3.828 1.459-.898 3.119-1.347 4.981-1.347 2.877 0 5.202.996 6.973 2.988 1.783 1.992 2.675 4.642 2.675 7.949v.254c0 2.057-.397 3.906-1.191 5.547-.781 1.627-1.908 2.897-3.379 3.808-1.458.912-3.138 1.368-5.039 1.368-2.865 0-5.189-.996-6.973-2.989-1.771-1.992-2.656-4.629-2.656-7.91v-.254zm3.633.43c0 2.344.54 4.225 1.621 5.644 1.094 1.42 2.552 2.129 4.375 2.129 1.836 0 3.294-.716 4.375-2.148 1.081-1.445 1.621-3.464 1.621-6.055 0-2.317-.553-4.192-1.66-5.625-1.094-1.445-2.552-2.168-4.375-2.168-1.784 0-3.223.71-4.317 2.129-1.093 1.419-1.64 3.451-1.64 6.094zm33.183 8.242c-1.406 1.654-3.47 2.481-6.191 2.481-2.253 0-3.971-.651-5.156-1.953-1.172-1.316-1.765-3.256-1.778-5.821v-13.75h3.614v13.653c0 3.203 1.302 4.804 3.906 4.804 2.76 0 4.596-1.028 5.508-3.086v-15.371h3.613V403h-3.437l-.079-2.09zm9.102.195c0-.625.182-1.145.547-1.562.377-.417.937-.625 1.68-.625.742 0 1.302.208 1.679.625.391.417.586.937.586 1.562 0 .599-.195 1.101-.586 1.504-.377.404-.937.606-1.679.606-.743 0-1.303-.202-1.68-.606-.365-.403-.547-.905-.547-1.504zm10.547 0c0-.625.182-1.145.547-1.562.377-.417.937-.625 1.679-.625.743 0 1.303.208 1.68.625.391.417.586.937.586 1.562 0 .599-.195 1.101-.586 1.504-.377.404-.937.606-1.68.606-.742 0-1.302-.202-1.679-.606-.365-.403-.547-.905-.547-1.504zm10.547 0c0-.625.182-1.145.547-1.562.377-.417.937-.625 1.679-.625s1.302.208 1.68.625c.391.417.586.937.586 1.562 0 .599-.195 1.101-.586 1.504-.378.404-.938.606-1.68.606s-1.302-.202-1.679-.606c-.365-.403-.547-.905-.547-1.504z"/>
  <defs>
    <linearGradient id="paint0_linear" x1="980.804" x2="980.804" y1="354.516" y2="107" gradientUnits="userSpaceOnUse">
      <stop stop-color="gray" stop-opacity=".25"/>
      <stop offset=".54" stop-color="gray" stop-opacity=".12"/>
      <stop offset="1" stop-color="gray" stop-opacity=".1"/>
    </linearGradient>
    <clipPath id="clip0">
      <path fill="#fff" d="M0 0h488v401H0z" transform="translate(720 107)"/>
    </clipPath>
  </defs>
</svg>
