<svg xmlns="http://www.w3.org/2000/svg" width="528" height="186" fill="none" viewBox="0 0 528 186">
  <rect width="490" height="123" fill="#2E47FF" rx="30"/>
  <path fill="#EEEDED" d="M43.969 81.64h32.343V89h-41.39V20.75h9.047v60.89zm62.297 8.297c-6.875 0-12.47-2.25-16.782-6.75-4.312-4.53-6.468-10.578-6.468-18.14v-1.594c0-5.031.953-9.516 2.859-13.453 1.938-3.969 4.625-7.063 8.063-9.281 3.468-2.25 7.218-3.375 11.25-3.375 6.593 0 11.718 2.172 15.374 6.515 3.657 4.344 5.485 10.563 5.485 18.657v3.609h-34.36c.126 5 1.579 9.047 4.36 12.14 2.812 3.063 6.375 4.594 10.687 4.594 3.063 0 5.657-.625 7.782-1.875s3.984-2.906 5.578-4.968l5.297 4.125c-4.25 6.53-10.625 9.796-19.125 9.796zm-1.078-45.468c-3.5 0-6.438 1.281-8.813 3.843C94 50.844 92.531 54.407 91.969 59h25.406v-.656c-.25-4.407-1.437-7.813-3.563-10.219-2.124-2.438-5-3.656-8.624-3.656zM167.438 89c-.5-1-.907-2.781-1.219-5.344-4.031 4.188-8.844 6.281-14.438 6.281-5 0-9.109-1.406-12.328-4.218-3.187-2.844-4.781-6.438-4.781-10.781 0-5.282 2-9.376 6-12.282 4.031-2.937 9.687-4.406 16.969-4.406h8.437v-3.984c0-3.032-.906-5.438-2.719-7.22-1.812-1.812-4.484-2.718-8.015-2.718-3.094 0-5.688.781-7.782 2.344-2.093 1.562-3.14 3.453-3.14 5.672h-8.719c0-2.532.891-4.969 2.672-7.313 1.813-2.375 4.25-4.25 7.313-5.625 3.093-1.375 6.484-2.062 10.171-2.062 5.844 0 10.422 1.468 13.735 4.406 3.312 2.906 5.031 6.922 5.156 12.047V77.14c0 4.656.594 8.359 1.781 11.109V89h-9.093zm-14.391-6.61c2.719 0 5.297-.703 7.734-2.109 2.438-1.406 4.203-3.234 5.297-5.484V64.39h-6.797c-10.625 0-15.937 3.109-15.937 9.328 0 2.719.906 4.844 2.718 6.375 1.813 1.531 4.141 2.297 6.985 2.297zm59.812-36.328a25.982 25.982 0 00-4.265-.328c-5.688 0-9.547 2.422-11.578 7.266v36h-8.672V38.281h8.437l.141 5.86c2.844-4.532 6.875-6.797 12.094-6.797 1.687 0 2.968.218 3.843.656v8.063zm16.219-7.78l.281 6.374c3.875-4.875 8.938-7.312 15.188-7.312 10.719 0 16.125 6.047 16.219 18.14V89h-8.672V55.437c-.032-3.656-.875-6.359-2.532-8.109-1.624-1.75-4.171-2.625-7.64-2.625-2.813 0-5.281.75-7.406 2.25s-3.782 3.469-4.969 5.906V89h-8.672V38.281h8.203zM305.156 89c-.5-1-.906-2.781-1.218-5.344-4.032 4.188-8.844 6.281-14.438 6.281-5 0-9.109-1.406-12.328-4.218-3.188-2.844-4.781-6.438-4.781-10.781 0-5.282 2-9.376 6-12.282 4.031-2.937 9.687-4.406 16.968-4.406h8.438v-3.984c0-3.032-.906-5.438-2.719-7.22-1.812-1.812-4.484-2.718-8.016-2.718-3.093 0-5.687.781-7.781 2.344-2.093 1.562-3.14 3.453-3.14 5.672h-8.719c0-2.532.89-4.969 2.672-7.313 1.812-2.375 4.25-4.25 7.312-5.625 3.094-1.375 6.485-2.062 10.172-2.062 5.844 0 10.422 1.468 13.734 4.406 3.313 2.906 5.032 6.922 5.157 12.047V77.14c0 4.656.593 8.359 1.781 11.109V89h-9.094zm-14.39-6.61c2.718 0 5.296-.703 7.734-2.109 2.438-1.406 4.203-3.234 5.297-5.484V64.39H297c-10.625 0-15.938 3.109-15.938 9.328 0 2.719.907 4.844 2.719 6.375 1.813 1.531 4.141 2.297 6.985 2.297zM337.828 26v12.281h9.469v6.703h-9.469v31.453c0 2.032.422 3.563 1.266 4.594.844 1 2.281 1.5 4.312 1.5 1 0 2.375-.187 4.125-.562V89c-2.281.625-4.5.938-6.656.938-3.875 0-6.797-1.172-8.766-3.516-1.968-2.344-2.953-5.672-2.953-9.984V44.983h-9.234v-6.703h9.234V26h8.672zm29.063 63h-8.672V38.281h8.672V89zm-9.375-64.172c0-1.406.422-2.594 1.265-3.562.875-.97 2.157-1.453 3.844-1.453 1.687 0 2.969.484 3.844 1.453.875.968 1.312 2.156 1.312 3.562 0 1.406-.437 2.578-1.312 3.516-.875.937-2.157 1.406-3.844 1.406-1.687 0-2.969-.469-3.844-1.406-.843-.938-1.265-2.11-1.265-3.516zm40.031 52.406l12.562-38.953h8.86L400.781 89h-6.609l-18.375-50.719h8.859l12.891 38.953zm50.156 12.704c-6.875 0-12.469-2.25-16.781-6.75-4.313-4.532-6.469-10.579-6.469-18.141v-1.594c0-5.031.953-9.516 2.859-13.453 1.938-3.969 4.626-7.063 8.063-9.281 3.469-2.25 7.219-3.375 11.25-3.375 6.594 0 11.719 2.172 15.375 6.515 3.656 4.344 5.484 10.563 5.484 18.657v3.609h-34.359c.125 5 1.578 9.047 4.359 12.14 2.813 3.063 6.375 4.594 10.688 4.594 3.062 0 5.656-.625 7.781-1.875s3.985-2.906 5.578-4.968l5.297 4.125c-4.25 6.53-10.625 9.796-19.125 9.796zm-1.078-45.47c-3.5 0-6.437 1.282-8.813 3.844-2.374 2.532-3.843 6.094-4.406 10.688h25.406v-.656c-.25-4.407-1.437-7.813-3.562-10.219-2.125-2.438-5-3.656-8.625-3.656z"/>
</svg>
