<svg xmlns="http://www.w3.org/2000/svg" width="708" height="556" fill="none" viewBox="0 0 708 556">
  <g clip-path="url(#clip0)">
    <path fill="#F0F0F0" d="M644.465 507.448a211.712 211.712 0 01-46.196 37.271c-.392.241-.79.467-1.19.7l-27.639-24.462c.291-.27.612-.573.958-.905 20.594-19.555 122.831-156.28 129.644-189.575-.47 2.774 6.147 111.551-55.577 176.971z"/>
    <path fill="#F0F0F0" d="M603.602 549.439c-.523.125-1.055.241-1.588.348l-20.735-18.353c.405-.141.878-.309 1.42-.495 8.897-3.151 35.394-12.661 61.764-23.492 28.335-11.644 56.533-24.8 62.598-33.227-1.301 1.958-41.375 61.336-103.459 75.219z"/>
    <path fill="#3F3D56" d="M644.082 145.58h-2.953V64.686a46.817 46.817 0 00-46.819-46.819H422.926a46.816 46.816 0 00-43.255 28.902 46.817 46.817 0 00-3.564 17.917v443.789a46.814 46.814 0 0028.902 43.255 46.814 46.814 0 0017.917 3.564H594.31a46.821 46.821 0 0046.819-46.819V203.162h2.953V145.58z"/>
    <path fill="#fff" d="M631.163 65.008v443.143a34.964 34.964 0 01-10.243 24.723 34.97 34.97 0 01-24.727 10.234H423.984a34.952 34.952 0 01-24.719-10.238 34.946 34.946 0 01-10.238-24.719V65.008a34.954 34.954 0 0134.957-34.957h20.899a16.623 16.623 0 001.603 15.534 16.622 16.622 0 0013.78 7.346h98.182a16.601 16.601 0 0015.384-22.88h22.361a34.96 34.96 0 0132.308 21.577 34.967 34.967 0 012.662 13.38z"/>
    <path fill="#F0F0F0" d="M577.595 295.289H426.228a10.011 10.011 0 01-10-10v-4.978a10.011 10.011 0 0110-10h151.367a10.012 10.012 0 0110 10v4.978a10.012 10.012 0 01-10 10zM577.595 338.196H426.228a10.011 10.011 0 01-10-10v-4.977a10.008 10.008 0 0110-10h151.367a10.009 10.009 0 0110 10v4.977a10.012 10.012 0 01-10 10z"/>
    <path fill="#3F3D56" d="M585.166 285.693H433.8a10.516 10.516 0 01-10.5-10.5v-4.978a10.512 10.512 0 0110.5-10.5h151.366a10.512 10.512 0 0110.5 10.5v4.978a10.511 10.511 0 01-10.5 10.5zM433.8 261.715a8.512 8.512 0 00-8.5 8.5v4.978a8.508 8.508 0 008.5 8.5h151.366a8.511 8.511 0 008.5-8.5v-4.978a8.508 8.508 0 00-8.5-8.5H433.8zM585.166 328.6H433.8a10.512 10.512 0 01-10.5-10.5v-4.978a10.511 10.511 0 0110.5-10.5h151.366a10.512 10.512 0 0110.5 10.5v4.978a10.512 10.512 0 01-10.5 10.5zM433.8 304.622a8.511 8.511 0 00-8.5 8.5v4.978a8.508 8.508 0 008.5 8.5h151.366a8.511 8.511 0 008.5-8.5v-4.978a8.511 8.511 0 00-8.5-8.5H433.8z"/>
    <path fill="#F0F0F0" d="M631.163 65.008v96.39A103.538 103.538 0 01501.28 61.323c0-2.827.114-5.624.341-8.392h56.827a16.604 16.604 0 0016.53-14.91 16.6 16.6 0 00-1.146-7.97h22.361a34.96 34.96 0 0132.308 21.577 34.967 34.967 0 012.662 13.38z"/>
    <path fill="#9084B8" d="M476.041 537.088c0 2.032-.076 4.038-.24 6.02h-51.817a34.952 34.952 0 01-24.719-10.238 34.946 34.946 0 01-10.238-24.719v-47.4a77.068 77.068 0 0187.014 76.337zM58.121 453.919a6.008 6.008 0 007.911-3.067l46.68-105.794a13.381 13.381 0 00-17.078-17.876 13.196 13.196 0 00-6.75 5.78c-.24.419-.46.851-.654 1.293L41.55 440.049a6.003 6.003 0 003.068 7.912l13.503 5.958z"/>
    <path fill="#2F2E41" d="M110.795 388.491L64.624 378.23l11.428-30.232a31.95 31.95 0 0134.299-23.628l.444.05v64.071z"/>
    <path fill="#9084B8" d="M204.055 455.432a7.027 7.027 0 01-6.412-4.177l-46.679-105.794a14.378 14.378 0 0117.251-19.588 14.378 14.378 0 018.358 6.591c.259.45.494.913.703 1.388l46.679 105.794a7.002 7.002 0 01-3.578 9.23l-13.962 6.159-.007-.015a6.943 6.943 0 01-2.353.412zM139.485 419.103a6.007 6.007 0 00-6 6v123.014a6.008 6.008 0 006 6h14.76a6.007 6.007 0 006-6V425.103a6.007 6.007 0 00-6-6h-14.76zM110.293 419.103a6.007 6.007 0 00-6 6v123.014a6.011 6.011 0 001.759 4.241 6.011 6.011 0 004.241 1.759h14.76a6.011 6.011 0 004.241-1.759 6.011 6.011 0 001.759-4.241V425.103a6.007 6.007 0 00-6-6h-14.76zM131.828 290.224c28.167 0 51-22.833 51-51 0-28.166-22.833-51-51-51-28.166 0-51 22.834-51 51 0 28.167 22.834 51 51 51z"/>
    <path fill="#2F2E41" d="M148.8 260.633c3.306-.092 7.42-.207 10.59-2.522a8.135 8.135 0 003.2-6.073 5.48 5.48 0 00-1.86-4.493c-1.656-1.399-4.073-1.727-6.678-.961l2.699-19.726-1.982-.271-3.173 23.19 1.655-.76c1.918-.88 4.551-1.327 6.188.055a3.52 3.52 0 011.152 2.896 6.136 6.136 0 01-2.381 4.528c-2.466 1.802-5.746 2.034-9.466 2.138l.056 1.999zM177.321 228.559H166.55v2h10.771v-2zM143.321 228.559H132.55v2h10.771v-2zM182.362 456.053l-18.356-134a6 6 0 00-5.945-5.186h-13.856c.058-.33.088-.664.09-1v-5a6 6 0 00-6-6h-12a6 6 0 00-6 6v5c.002.336.032.67.09 1H106.53a6.003 6.003 0 00-5.945 5.186l-18.356 134a5.996 5.996 0 003.46 6.276c.78.355 1.628.538 2.484.538h88.244a5.996 5.996 0 005.749-4.28 6.015 6.015 0 00.196-2.534z"/>
    <path fill="#2F2E41" d="M153.795 388.491V324.42l.445-.05a31.966 31.966 0 0134.316 23.681l11.411 30.179-46.172 10.261zM129.26 291.815l-35.275-13.691c-5.769-2.239-11.57-4.41-17.307-6.726a19.742 19.742 0 01-6.662-3.926 13.09 13.09 0 01-3.32-6.427c-1.224-5.172-1.003-10.825-.916-16.103.068-5.773.543-11.534 1.422-17.24a83.29 83.29 0 0110.65-30.381c9.893-16.231 26.938-28.443 46.543-27.469 9.077.451 18.206 3.708 24.95 9.914a15.694 15.694 0 002.355 2.283 3.278 3.278 0 001.875.126 81.553 81.553 0 012.471-.122c2.86-.12 5.726 0 8.566.36a27.122 27.122 0 0114.13 5.867c3.37 2.899 6.112 6.992 6.395 11.54a13.66 13.66 0 01-4.615 11.15c-4.208 3.547-10.213 2.301-15.261 2.033l-18.494-.98-9.37-.496c-1.929-.102-1.924 2.898 0 3l24.905 1.319c4.002.212 8.127.732 12.132.492a13.572 13.572 0 008.334-3.352 16.621 16.621 0 005.036-15.601c-1.284-6.138-5.852-11.215-11.206-14.235-7.287-4.11-15.989-4.504-24.141-3.896l1.06.439c-9.222-9.898-23.348-14.077-36.61-12.615-14.002 1.544-26.456 9.356-35.404 20.038-9.976 11.909-15.413 26.759-17.526 42.029a139.857 139.857 0 00-1.082 24.88 31.35 31.35 0 001.852 10.751 15.386 15.386 0 007.225 7.746 103.165 103.165 0 0011.468 4.711l12.996 5.045 25.528 9.908 6.498 2.522c1.801.699 2.581-2.2.798-2.893z"/>
    <path fill="#2F2E41" d="M73.795 189.867a15.501 15.501 0 01-10.96-26.46 15.505 15.505 0 0116.892-3.36 15.5 15.5 0 019.568 14.32 15.515 15.515 0 01-15.5 15.5zm0-28a12.504 12.504 0 00-11.548 7.717 12.5 12.5 0 1024.048 4.783 12.512 12.512 0 00-12.5-12.5z"/>
    <path fill="#F0F0F0" d="M332.899 285.923l-33.549-25.66-25.659 33.549 33.549 25.659 25.659-33.548zM143.295 56.867a33.952 33.952 0 0127.278 13.703l19.589-25.614L131.384 0 86.428 58.779l25.334 19.376a34.005 34.005 0 0131.533-21.288z"/>
    <path fill="#3F3D56" d="M707 555.867H1a1.001 1.001 0 01-1-1 1 1 0 011-1h706a1.002 1.002 0 01.707 1.708 1 1 0 01-.707.292z"/>
    <path fill="#9084B8" d="M534.687 389.937h-71.862a10.012 10.012 0 01-10-10v-4.978a10.012 10.012 0 0110-10h71.862a10.014 10.014 0 0110 10v4.978a10.011 10.011 0 01-10 10z"/>
    <path fill="#3F3D56" d="M542.259 380.341h-71.862a10.512 10.512 0 01-10.5-10.5v-4.977a10.51 10.51 0 0110.5-10.5h71.862a10.51 10.51 0 0110.5 10.5v4.977a10.508 10.508 0 01-3.079 7.421 10.508 10.508 0 01-7.421 3.079zm-71.862-23.977a8.508 8.508 0 00-8.5 8.5v4.977a8.512 8.512 0 008.5 8.5h71.862a8.508 8.508 0 008.5-8.5v-4.977a8.504 8.504 0 00-8.5-8.5h-71.862z"/>
  </g>
  <defs>
    <clipPath id="clip0">
      <path fill="#fff" d="M0 0h708v555.867H0z"/>
    </clipPath>
  </defs>
</svg>
