<svg id="visual" viewBox="0 0 900 600" width="900" height="600" xmlns="http://www.w3.org/2000/svg" xmlns:xlink="http://www.w3.org/1999/xlink" version="1.1"><path d="M0 427L37.5 434.7C75 442.3 150 457.7 225 472.5C300 487.3 375 501.7 450 490.2C525 478.7 600 441.3 675 425.8C750 410.3 825 416.7 862.5 419.8L900 423L900 601L862.5 601C825 601 750 601 675 601C600 601 525 601 450 601C375 601 300 601 225 601C150 601 75 601 37.5 601L0 601Z" fill="#0066FF" stroke-linecap="round" stroke-linejoin="miter"></path></svg>